<svg width="500" height="500" viewBox="0 0 500 500" fill="none" xmlns="http://www.w3.org/2000/svg">
<path d="M91.65 416.53C4.17004 366 4.17004 284.13 91.65 233.62C179.13 183.11 320.98 183.11 408.47 233.62C495.96 284.13 495.95 366.02 408.47 416.53C320.99 467.04 179.14 467 91.65 416.53Z" fill="#F5F5F5"/>
<path d="M137.15 359.87C189.136 359.87 231.28 335.537 231.28 305.52C231.28 275.504 189.136 251.17 137.15 251.17C85.163 251.17 43.0195 275.504 43.0195 305.52C43.0195 335.537 85.163 359.87 137.15 359.87Z" fill="#E0E0E0"/>
<path d="M357.39 371.5C415.402 371.5 462.43 344.351 462.43 310.86C462.43 277.37 415.402 250.22 357.39 250.22C299.378 250.22 252.35 277.37 252.35 310.86C252.35 344.351 299.378 371.5 357.39 371.5Z" fill="#E0E0E0"/>
<path d="M230.599 331.7L141.179 383.33C138.979 384.6 138.979 386.66 141.179 387.93L230.599 439.55C231.837 440.186 233.208 440.518 234.599 440.518C235.991 440.518 237.362 440.186 238.599 439.55L327.999 387.93C330.199 386.66 330.199 384.6 327.999 383.33L238.569 331.7C237.334 331.074 235.969 330.748 234.584 330.748C233.2 330.748 231.834 331.074 230.599 331.7Z" fill="#E0E0E0"/>
<path d="M420.51 302.84L412.66 296.42C412.66 296.42 410.99 274.15 416.18 255.19C423.49 228.54 438.49 218.59 447.68 223.13C454.2 226.34 456.5 236.34 442.68 250.67C434.46 259.12 423.09 277.64 420.51 302.84Z" fill="#00B39D"/>
<path opacity="0.3" d="M420.51 302.84L412.66 296.42C412.66 296.42 410.99 274.15 416.18 255.19C423.49 228.54 438.49 218.59 447.68 223.13C454.2 226.34 456.5 236.34 442.68 250.67C434.46 259.12 423.09 277.64 420.51 302.84Z" fill="black"/>
<path d="M417.54 288.43H417.62C417.7 288.428 417.779 288.411 417.853 288.379C417.926 288.348 417.993 288.302 418.049 288.244C418.104 288.186 418.148 288.118 418.178 288.044C418.207 287.969 418.221 287.89 418.22 287.81C417.54 262.02 431.94 238.63 444.67 228.7C444.796 228.598 444.876 228.451 444.895 228.29C444.914 228.129 444.869 227.968 444.77 227.84C444.721 227.777 444.66 227.724 444.591 227.685C444.522 227.646 444.445 227.621 444.366 227.612C444.287 227.602 444.207 227.609 444.13 227.631C444.054 227.653 443.982 227.69 443.92 227.74C430.92 237.86 416.31 261.67 417 287.84C417.004 287.987 417.061 288.127 417.16 288.236C417.259 288.344 417.394 288.413 417.54 288.43Z" fill="white"/>
<path d="M436.39 323.45C441.79 321.69 443.02 318.59 443.95 314.74C444.23 313.448 444.42 312.138 444.52 310.82L444.91 306.94C444.946 305.656 445.246 304.393 445.79 303.23C447.04 300.97 449.79 300.14 452.31 299.47C455.06 298.73 458.11 297.47 459.23 294.64C459.959 292.355 459.91 289.894 459.09 287.64C458.41 285.36 457.4 283.18 456.89 280.86C456.425 279.205 456.541 277.44 457.22 275.86C457.742 274.929 458.446 274.113 459.29 273.46C461.41 271.7 463.91 270.34 465.41 267.94C465.998 267.062 466.343 266.044 466.41 264.99C466.54 261.83 463.99 260.39 461.54 259.6C459.836 259.155 458.055 259.083 456.32 259.39C450.77 260.11 446.03 264.46 440.44 264.49C438.28 264.49 436.17 263.85 434.03 263.6C431.89 263.35 429.51 263.54 427.9 264.98C424.72 267.81 426.28 273.48 423.54 276.74C421.54 279.13 418.38 279.48 415.85 281.06C412.913 282.775 410.672 285.469 409.52 288.67C408.109 292.231 407.671 296.104 408.25 299.89C409.49 307.78 415.15 312.41 420.59 317.54C422.89 319.73 431 325.22 436.39 323.45Z" fill="#00B39D"/>
<path opacity="0.1" d="M436.39 323.45C441.79 321.69 443.02 318.59 443.95 314.74C444.23 313.448 444.42 312.138 444.52 310.82L444.91 306.94C444.946 305.656 445.246 304.393 445.79 303.23C447.04 300.97 449.79 300.14 452.31 299.47C455.06 298.73 458.11 297.47 459.23 294.64C459.959 292.355 459.91 289.894 459.09 287.64C458.41 285.36 457.4 283.18 456.89 280.86C456.425 279.205 456.541 277.44 457.22 275.86C457.742 274.929 458.446 274.113 459.29 273.46C461.41 271.7 463.91 270.34 465.41 267.94C465.998 267.062 466.343 266.044 466.41 264.99C466.54 261.83 463.99 260.39 461.54 259.6C459.836 259.155 458.055 259.083 456.32 259.39C450.77 260.11 446.03 264.46 440.44 264.49C438.28 264.49 436.17 263.85 434.03 263.6C431.89 263.35 429.51 263.54 427.9 264.98C424.72 267.81 426.28 273.48 423.54 276.74C421.54 279.13 418.38 279.48 415.85 281.06C412.913 282.775 410.672 285.469 409.52 288.67C408.109 292.231 407.671 296.104 408.25 299.89C409.49 307.78 415.15 312.41 420.59 317.54C422.89 319.73 431 325.22 436.39 323.45Z" fill="black"/>
<path d="M458.441 263.75C458.412 263.675 458.368 263.606 458.313 263.548C458.258 263.49 458.192 263.443 458.118 263.411C458.045 263.378 457.966 263.36 457.885 263.359C457.805 263.357 457.725 263.371 457.651 263.4C451.291 265.9 441.421 274.22 432.741 285.4C432.672 285.435 432.612 285.485 432.563 285.545C432.515 285.605 432.48 285.675 432.461 285.75C426.278 293.599 421.371 302.373 417.921 311.75C417.868 311.898 417.875 312.062 417.94 312.205C418.006 312.349 418.124 312.461 418.271 312.52C418.423 312.571 418.59 312.562 418.736 312.493C418.881 312.424 418.994 312.301 419.051 312.15C422.448 302.925 427.266 294.287 433.331 286.55C439.116 287.226 444.814 288.51 450.331 290.38C450.407 290.406 450.487 290.418 450.568 290.413C450.648 290.408 450.727 290.388 450.8 290.353C450.872 290.317 450.937 290.268 450.991 290.207C451.044 290.147 451.085 290.076 451.111 290C451.139 289.924 451.151 289.844 451.147 289.764C451.143 289.683 451.122 289.605 451.087 289.533C451.051 289.461 451.001 289.396 450.94 289.344C450.879 289.292 450.807 289.253 450.731 289.23C445.371 287.412 439.844 286.136 434.231 285.42C442.621 274.81 452.001 266.95 458.091 264.56C458.167 264.53 458.237 264.485 458.296 264.428C458.355 264.371 458.402 264.303 458.435 264.228C458.467 264.152 458.485 264.071 458.486 263.989C458.487 263.907 458.471 263.826 458.441 263.75Z" fill="white"/>
<path d="M96.8098 296.69C97.4598 282.69 98.9698 269.55 92.5198 249.37C87.0998 232.45 70.9998 215.24 60.5898 215.61C50.9198 215.96 45.1598 226.61 56.7198 238.61C59.1698 241.15 82.8898 261.61 83.9898 284.85L86.5298 298.28C86.6075 298.653 86.7698 299.003 87.0042 299.304C87.2386 299.604 87.5388 299.847 87.8818 300.013C88.2247 300.179 88.6013 300.264 88.9823 300.262C89.3634 300.26 89.7389 300.17 90.0798 300L96.8098 296.69Z" fill="#00B39D"/>
<path opacity="0.3" d="M96.8098 296.69C97.4598 282.69 98.9698 269.55 92.5198 249.37C87.0998 232.45 70.9998 215.24 60.5898 215.61C50.9198 215.96 45.1598 226.61 56.7198 238.61C59.1698 241.15 82.8898 261.61 83.9898 284.85L86.5298 298.28C86.6075 298.653 86.7698 299.003 87.0042 299.304C87.2386 299.604 87.5388 299.847 87.8818 300.013C88.2247 300.179 88.6013 300.264 88.9823 300.262C89.3634 300.26 89.7389 300.17 90.0798 300L96.8098 296.69Z" fill="black"/>
<path d="M93.0003 295.74C92.8706 295.704 92.756 295.627 92.6732 295.52C92.5904 295.414 92.5438 295.284 92.5403 295.15C92.0803 259.56 79.3103 234.63 60.1503 223.25C60.0713 223.214 60.0008 223.161 59.9434 223.096C59.886 223.03 59.843 222.954 59.8171 222.871C59.7913 222.788 59.7832 222.7 59.7933 222.614C59.8035 222.528 59.8317 222.444 59.8761 222.37C59.9205 222.295 59.9801 222.23 60.0511 222.18C60.1221 222.13 60.2029 222.095 60.2881 222.078C60.3734 222.061 60.4613 222.063 60.5461 222.082C60.6308 222.101 60.7106 222.138 60.7803 222.19C80.1903 233.71 93.3103 259.1 93.7803 295.13C93.783 295.212 93.7692 295.293 93.7397 295.369C93.7103 295.446 93.6657 295.515 93.6088 295.574C93.5519 295.633 93.4838 295.68 93.4084 295.712C93.3331 295.743 93.2521 295.76 93.1703 295.76C93.1129 295.763 93.0554 295.756 93.0003 295.74Z" fill="white"/>
<path d="M88.5201 300.76C87.9538 301.052 87.3321 301.22 86.6959 301.254C86.0597 301.288 85.4236 301.187 84.8293 300.958C84.2351 300.728 83.6962 300.375 83.2482 299.922C82.8002 299.469 82.4532 298.927 82.2301 298.33C79.5948 291.995 75.7265 286.247 70.8501 281.42C62.0001 272.37 49.6801 266.61 47.7601 260.54C45.4601 253.24 51.9601 249.6 62.4301 252.21C75.0001 255.34 88.5801 270.31 90.0001 300L88.5201 300.76Z" fill="#00B39D"/>
<path opacity="0.1" d="M88.5201 300.76C87.9538 301.052 87.3321 301.22 86.6959 301.254C86.0597 301.288 85.4236 301.187 84.8293 300.958C84.2351 300.728 83.6962 300.375 83.2482 299.922C82.8002 299.469 82.4532 298.927 82.2301 298.33C79.5948 291.995 75.7265 286.247 70.8501 281.42C62.0001 272.37 49.6801 266.61 47.7601 260.54C45.4601 253.24 51.9601 249.6 62.4301 252.21C75.0001 255.34 88.5801 270.31 90.0001 300L88.5201 300.76Z" fill="black"/>
<path d="M86.4999 298.86C86.3845 298.826 86.2811 298.76 86.2015 298.669C86.1219 298.579 86.0694 298.468 86.0499 298.35C82.0499 272.3 65.1399 260.15 56.7499 257.35C56.5953 257.297 56.4676 257.186 56.3946 257.04C56.3215 256.894 56.3091 256.725 56.3599 256.57C56.3837 256.491 56.423 256.419 56.4754 256.356C56.5278 256.293 56.5923 256.242 56.6651 256.204C56.7379 256.167 56.8174 256.145 56.899 256.139C56.9805 256.133 57.0624 256.143 57.1399 256.17C66.4199 259.26 83.2099 271.57 87.2799 298.17C87.2927 298.251 87.2893 298.333 87.2701 298.413C87.2508 298.492 87.216 298.567 87.1677 298.633C87.1193 298.699 87.0584 298.755 86.9884 298.797C86.9184 298.839 86.8408 298.868 86.7599 298.88C86.6727 298.888 86.5847 298.881 86.4999 298.86Z" fill="white"/>
<path d="M417.85 265.31C422.24 278.42 426.01 295.31 431.95 320.85C437.51 344.75 437.54 361.63 429.82 367.42C422.3 373.05 399.92 369.68 385.9 339.82C381.51 330.49 363.78 300.03 363.78 300.03C359.323 299.063 355.006 297.537 350.93 295.49L302.55 297.87C282.75 293.82 249.46 289.1 251.97 281.87C254.63 274.15 265.53 268.03 276.41 264.22C300.2 255.9 317.29 253.99 341.54 252.43L417.85 265.31Z" fill="#37474F"/>
<path d="M349.681 287C343.201 276.73 343.091 270.76 343.091 270.76C343.091 270.76 341.731 283.5 347.961 292.35L305.391 297.7L350.931 295.46C355.003 297.506 359.317 299.032 363.771 300C363.771 300 356.171 297.3 349.681 287Z" fill="#263238"/>
<path d="M338.571 323.1C341.901 325.61 345.981 327.91 349.681 328.41C351.023 328.593 352.389 328.477 353.681 328.07C358.161 326.72 365.471 326.07 368.831 334.96C372.641 345.03 384.611 348.96 388.321 355.71C390.171 359.12 391.871 369.28 390.921 375.71C390.131 380.98 379.811 378.02 375.561 372.06C371.311 366.1 362.611 358.5 357.001 354.17C348.071 350.17 338.001 343.94 333.721 341.47L338.571 323.1Z" fill="#874C4C"/>
<path d="M272.87 270.4C246.87 274.46 247.87 289.83 255.31 299.75C263.36 310.44 290.53 323.44 305.17 330.23C318.63 336.48 342.99 346.91 342.99 346.91C342.84 340.126 345.225 333.529 349.68 328.41C334.3 319.58 318.15 291.82 293.63 289.95L272.87 270.4Z" fill="#37474F"/>
<path d="M387.22 379.22C388.748 379.314 390.254 378.821 391.43 377.84C392.53 376.91 394.43 369.39 391.53 360.73C389.333 354.315 385.459 348.604 380.31 344.19C377.19 341.42 375.84 338.03 374.43 333.73C373.02 329.43 369.32 324.27 367.02 323.86C364.72 323.45 361.5 325.48 361.5 325.48L387.22 379.22Z" fill="#263238"/>
<path d="M349.931 351C350.731 353.75 353.101 354.26 355.681 355C359.181 356.05 362.681 359.26 366.121 362.9C368.431 365.36 370.391 367.9 372.511 370.49C374.631 373.08 376.591 376.96 378.821 378.91C382.081 381.75 388.061 380.64 389.321 376.08C390.411 372.15 390.201 362.63 385.041 353.95C382.231 349.22 375.261 344.95 372.951 338.42C371.401 334.02 369.361 328.79 365.741 325.67C363.601 323.82 361.841 324.47 359.441 325.38C356.253 326.584 352.994 327.586 349.681 328.38C349.997 331.166 351.076 333.81 352.801 336.02C353.457 336.711 353.961 337.532 354.281 338.43C354.396 339.068 354.396 339.722 354.281 340.36C354.171 341.24 353.941 342.3 353.101 342.61C352.752 342.696 352.398 342.756 352.041 342.79C350.711 343.09 350.201 344.68 349.971 346.03C349.653 347.479 349.599 348.972 349.811 350.44C349.839 350.629 349.879 350.816 349.931 351Z" fill="#00B39D"/>
<path opacity="0.4" d="M349.931 351C350.731 353.75 353.101 354.26 355.681 355C359.181 356.05 362.681 359.26 366.121 362.9C368.431 365.36 370.391 367.9 372.511 370.49C374.631 373.08 376.591 376.96 378.821 378.91C382.081 381.75 388.061 380.64 389.321 376.08C390.411 372.15 390.201 362.63 385.041 353.95C382.231 349.22 375.261 344.95 372.951 338.42C371.401 334.02 369.361 328.79 365.741 325.67C363.601 323.82 361.841 324.47 359.441 325.38C356.253 326.584 352.994 327.586 349.681 328.38C349.997 331.166 351.076 333.81 352.801 336.02C353.457 336.711 353.961 337.532 354.281 338.43C354.396 339.068 354.396 339.722 354.281 340.36C354.171 341.24 353.941 342.3 353.101 342.61C352.752 342.696 352.398 342.756 352.041 342.79C350.711 343.09 350.201 344.68 349.971 346.03C349.653 347.479 349.599 348.972 349.811 350.44C349.839 350.629 349.879 350.816 349.931 351Z" fill="black"/>
<path d="M362.74 359.6C362.072 359.449 361.452 359.133 360.936 358.68C360.421 358.228 360.027 357.654 359.79 357.01C358.91 355.16 359.43 351.35 360.62 348.75C360.731 348.505 360.9 348.29 361.113 348.125C361.326 347.959 361.576 347.849 361.841 347.802C362.106 347.756 362.379 347.775 362.635 347.859C362.891 347.942 363.123 348.087 363.31 348.28C363.544 348.525 363.697 348.836 363.747 349.171C363.797 349.506 363.743 349.848 363.59 350.15C362.089 353.07 361.784 356.46 362.74 359.6Z" fill="#F5F5F5"/>
<path d="M367.71 364.72C367.001 364.457 366.365 364.027 365.856 363.467C365.348 362.906 364.982 362.232 364.79 361.5C364.79 361.5 363.59 356.39 365.68 352.5C365.789 352.265 365.953 352.059 366.159 351.901C366.364 351.743 366.605 351.637 366.86 351.592C367.115 351.547 367.378 351.564 367.625 351.642C367.872 351.72 368.097 351.857 368.28 352.04C368.508 352.274 368.655 352.575 368.702 352.898C368.749 353.221 368.692 353.551 368.54 353.84C367.6 355.477 367.037 357.304 366.894 359.186C366.75 361.068 367.029 362.959 367.71 364.72Z" fill="#F5F5F5"/>
<path d="M372.51 370.56C371.832 370.221 371.234 369.74 370.758 369.15C370.282 368.56 369.938 367.875 369.75 367.14C369.75 367.14 368.67 362.37 370.75 358.45C370.859 358.215 371.023 358.01 371.229 357.852C371.434 357.693 371.675 357.587 371.93 357.542C372.185 357.497 372.448 357.514 372.695 357.592C372.942 357.67 373.167 357.807 373.35 357.99C373.574 358.228 373.72 358.53 373.766 358.854C373.813 359.178 373.758 359.508 373.61 359.8C372.597 361.382 371.97 363.18 371.779 365.049C371.588 366.918 371.838 368.806 372.51 370.56Z" fill="#F5F5F5"/>
<path d="M340.75 317.66C336.09 316.48 329.25 314.81 326.42 311.08C323.59 307.35 317.73 303.75 309.8 308.97C304.8 312.27 298.8 313.36 292.87 313.75C290.31 313.92 287.43 313.6 284.93 314.12C281.93 314.75 278.74 316.59 276.15 318.19C274.454 319.14 272.968 320.422 271.78 321.96C270.811 323.403 270.281 325.094 270.252 326.832C270.224 328.569 270.699 330.277 271.62 331.75C271.973 332.345 272.454 332.854 273.029 333.24C273.603 333.625 274.256 333.878 274.94 333.98C277.68 334.58 279.94 333.72 282.56 332.98C284.7 332.39 286.89 331.93 289.09 331.53C294.044 330.603 299.056 330.018 304.09 329.78C306.24 329.69 310.69 329.36 312.84 329.51C321.84 330.13 334.5 335.17 334.5 335.17L340.75 317.66Z" fill="#9E6767"/>
<path d="M434 360.62C432.52 369.68 422.35 374.05 400.54 369.69C378.73 365.33 326.83 332.69 326.83 332.69C326.83 332.69 328.83 320.16 340.83 316.79C340.83 316.79 351.68 318.79 369.39 322.61C377.368 324.364 385.249 326.534 393 329.11C405 345.18 417.42 338.69 421.91 344.34C429.37 353.78 434 360.62 434 360.62Z" fill="#37474F"/>
<path d="M269.36 332.25C268.069 331.425 267.142 330.137 266.77 328.65C266.43 327.25 269.3 320.03 276.77 314.78C282.333 310.896 288.835 308.572 295.6 308.05C299.75 307.65 302.84 305.71 306.52 303.05C310.2 300.39 316.23 298.44 318.33 299.46C320.43 300.48 321.83 304.03 321.83 304.03L269.36 332.25Z" fill="#263238"/>
<path d="M316.09 331.5C313.82 333.25 311.6 332.27 309.09 331.37C305.64 330.14 300.9 330.66 296 331.58C292.68 332.21 289.62 333.08 286.36 333.93C283.1 334.78 279.24 336.76 276.29 337.01C271.99 337.38 267.82 332.96 269.49 328.53C270.93 324.71 276.72 317.15 286.01 313.19C291.07 311.03 299.19 311.73 304.93 307.79C308.78 305.15 313.51 302.14 318.28 301.79C321.1 301.56 322.14 303.12 323.54 305.27C325.407 308.115 327.455 310.837 329.67 313.42C327.776 315.475 325.355 316.973 322.67 317.75C321.731 317.917 320.838 318.282 320.05 318.82C319.585 319.27 319.203 319.798 318.92 320.38C318.49 321.16 318.05 322.14 318.54 322.89C318.776 323.164 319.029 323.421 319.3 323.66C320.2 324.66 319.66 326.28 319.06 327.5C318.456 328.854 317.62 330.093 316.59 331.16C316.39 331.26 316.24 331.39 316.09 331.5Z" fill="#00B39D"/>
<path opacity="0.4" d="M316.09 331.5C313.82 333.25 311.6 332.27 309.09 331.37C305.64 330.14 300.9 330.66 296 331.58C292.68 332.21 289.62 333.08 286.36 333.93C283.1 334.78 279.24 336.76 276.29 337.01C271.99 337.38 267.82 332.96 269.49 328.53C270.93 324.71 276.72 317.15 286.01 313.19C291.07 311.03 299.19 311.73 304.93 307.79C308.78 305.15 313.51 302.14 318.28 301.79C321.1 301.56 322.14 303.12 323.54 305.27C325.407 308.115 327.455 310.837 329.67 313.42C327.776 315.475 325.355 316.973 322.67 317.75C321.731 317.917 320.838 318.282 320.05 318.82C319.585 319.27 319.203 319.798 318.92 320.38C318.49 321.16 318.05 322.14 318.54 322.89C318.776 323.164 319.029 323.421 319.3 323.66C320.2 324.66 319.66 326.28 319.06 327.5C318.456 328.854 317.62 330.093 316.59 331.16C316.39 331.26 316.24 331.39 316.09 331.5Z" fill="black"/>
<path d="M300.7 330.86C301.329 331.133 302.017 331.245 302.7 331.184C303.383 331.122 304.04 330.891 304.61 330.51C306.41 329.51 308.24 326.15 308.81 323.35C308.872 323.085 308.867 322.808 308.796 322.545C308.725 322.282 308.59 322.04 308.402 321.842C308.215 321.644 307.982 321.496 307.723 321.41C307.465 321.324 307.189 321.303 306.92 321.35C306.585 321.409 306.276 321.571 306.036 321.813C305.796 322.054 305.637 322.364 305.58 322.7C305.082 325.953 303.33 328.882 300.7 330.86Z" fill="#F5F5F5"/>
<path d="M293.66 332.06C294.389 332.265 295.156 332.292 295.897 332.139C296.639 331.986 297.332 331.657 297.92 331.18C297.92 331.18 301.92 327.76 302.53 323.37C302.581 323.116 302.571 322.854 302.499 322.605C302.427 322.356 302.296 322.129 302.117 321.941C301.939 321.754 301.718 321.612 301.473 321.528C301.228 321.445 300.966 321.421 300.71 321.46C300.388 321.517 300.091 321.672 299.862 321.905C299.632 322.138 299.482 322.437 299.43 322.76C299.226 324.643 298.602 326.457 297.603 328.066C296.604 329.676 295.257 331.041 293.66 332.06Z" fill="#F5F5F5"/>
<path d="M286.341 333.93C287.088 334.06 287.855 334.027 288.588 333.833C289.321 333.64 290.004 333.291 290.591 332.81C290.591 332.81 294.281 329.6 294.901 325.2C294.952 324.946 294.941 324.684 294.869 324.435C294.798 324.187 294.667 323.959 294.488 323.771C294.31 323.584 294.088 323.442 293.843 323.359C293.598 323.275 293.337 323.251 293.081 323.29C292.759 323.347 292.462 323.502 292.233 323.735C292.003 323.968 291.852 324.267 291.801 324.59C291.68 326.465 291.124 328.285 290.176 329.906C289.228 331.528 287.915 332.906 286.341 333.93Z" fill="#F5F5F5"/>
<path d="M377.9 324.63C377.9 324.63 392.55 327.49 403.41 334.81C403.41 334.81 392.25 321.74 375 319.39L377.9 324.63Z" fill="#263238"/>
<path d="M293.631 290C303.311 290.66 310.631 295.59 312.561 296.77L313.561 297.38L319.411 297.09C316.639 294.716 313.497 292.811 310.111 291.45C304.908 289.242 299.14 288.735 293.631 290Z" fill="#263238"/>
<path d="M311.93 243.64C323.15 245.8 329.65 245.78 335 233.73C342 217.9 353 192.35 353 192.35L358.54 149.06C347.32 147.47 337.3 153.68 330.79 169.06C324.11 184.84 311.27 217.23 311.27 217.23C303.14 216.56 294.95 216.67 286.81 216.09C283.05 215.82 279.61 215.48 276.48 213.15C274.502 211.496 272.429 209.96 270.27 208.55C268.825 207.66 267.302 206.904 265.72 206.29C264.327 205.682 263.025 204.884 261.85 203.92C261.506 203.623 261.081 203.435 260.63 203.38C259.79 203.38 259.2 204.25 259.03 205.08C258.816 206.243 258.977 207.444 259.49 208.51C260 209.57 260.698 210.529 261.55 211.34C261.83 211.62 262.14 212.06 261.89 212.34C261.785 212.428 261.658 212.487 261.523 212.51C261.387 212.533 261.248 212.519 261.12 212.47C258.208 211.895 255.333 211.147 252.51 210.23C251.205 209.784 249.781 209.834 248.51 210.37C246.36 211.37 245.92 214.28 246.24 216.64C248.33 232.33 265.88 233.79 278.13 236.45C287.04 238.39 295.95 240.33 304.88 242.19C307.2 242.7 309.56 243.19 311.93 243.64Z" fill="#874C4C"/>
<path d="M361.001 148.27C353.001 148.47 344.161 147.33 336.081 158.27C328.001 169.21 316.811 203.27 316.811 203.27C316.811 203.27 337.611 205.18 342.351 216.55L360.751 181.14L361.001 148.27Z" fill="#00B39D"/>
<path d="M389.18 148.52C405.03 151.45 415.6 154.87 418.59 157.77C425.33 171.57 416.59 217.87 416.59 217.87L416.88 244.62L417.88 265.31C400.75 279.78 345.44 273.54 336.09 253.26C336.09 253.26 333.7 201.7 336.09 182.01C338.63 161.09 348.09 148.89 366.01 147.84L389.18 148.52Z" fill="#E0E0E0"/>
<path d="M350.14 121.53C362.047 121.53 371.7 111.877 371.7 99.9702C371.7 88.0629 362.047 78.4102 350.14 78.4102C338.233 78.4102 328.58 88.0629 328.58 99.9702C328.58 111.877 338.233 121.53 350.14 121.53Z" fill="#263238"/>
<path d="M392.84 110.27C392.84 110.27 391.1 127.92 389.94 130.92C389.149 132.774 387.678 134.255 385.83 135.06L384.74 122.9L392.84 110.27Z" fill="#263238"/>
<path d="M385.48 86.0899C386.747 85.7965 388.064 85.7962 389.331 86.0891C390.598 86.382 391.781 86.9603 392.79 87.7799C396.16 90.5299 395.55 100.38 392.79 110.27L386 111.84L385.48 86.0899Z" fill="#263238"/>
<path d="M384 112.07C385.47 112.75 387.15 109.86 388.66 107.88C390.17 105.9 395.48 102.88 398.92 108.39C402.36 113.9 397.86 122.24 393.77 124.39C393.147 124.762 392.455 125.006 391.736 125.107C391.017 125.208 390.285 125.164 389.583 124.978C388.882 124.791 388.224 124.466 387.65 124.022C387.076 123.578 386.596 123.023 386.24 122.39L388.84 150.29C382.51 165.52 352.92 167.9 362.41 150.97L361.64 143.9C358.155 144.752 354.587 145.225 351 145.31C347.38 145.26 342.72 142.31 339.41 135.57C335 126.5 333 117.5 333.19 98.21C333.38 77.06 358.35 75.13 372.38 81.92C386.41 88.71 384 112.07 384 112.07Z" fill="#9E6767"/>
<path d="M383.07 74.81C378.258 73.3535 373.296 72.4444 368.28 72.1C357.44 70.98 346.42 70.1 336.21 66.26C335.002 65.6536 333.641 65.4203 332.3 65.59C329.79 66.21 329.02 69.42 329.2 72C329.366 74.4139 329.944 76.7815 330.91 79C329.36 77.52 326.58 78.06 325.23 79.72C324.609 80.5986 324.195 81.6073 324.022 82.6695C323.849 83.7317 323.92 84.8194 324.23 85.85C327.37 98.52 339.81 99.74 349.8 98.56C353.26 98.15 360.52 96.69 363.64 92.87C364.75 95.4397 366.587 97.6286 368.925 99.1673C371.264 100.706 374.001 101.527 376.8 101.53C377.064 104.944 377.708 108.319 378.72 111.59C379.19 113.09 379.95 114.77 381.47 115.17C382.07 115.278 382.689 115.219 383.258 115.001C383.828 114.782 384.326 114.412 384.7 113.93C386.19 112.22 386.95 109.93 388.45 108.14C390.36 105.87 390.8 90.28 390.86 87.4C390.882 87.1739 390.961 86.9571 391.09 86.77C393.09 83.13 389.66 77.77 386.48 76.24C385.374 75.6932 384.235 75.2156 383.07 74.81Z" fill="#263238"/>
<path d="M389.79 87.11C390.27 87.5978 390.843 87.9836 391.475 88.2445C392.108 88.5053 392.786 88.6357 393.47 88.6279C394.155 88.62 394.83 88.4741 395.456 88.1988C396.083 87.9235 396.647 87.5246 397.115 87.0259C397.583 86.5273 397.946 85.9392 398.182 85.2969C398.417 84.6545 398.521 83.9713 398.486 83.2881C398.451 82.6049 398.278 81.9358 397.978 81.3209C397.678 80.706 397.257 80.1581 396.74 79.71L389.79 87.11Z" fill="#263238"/>
<path d="M361.59 144C361.59 144 372.14 140.8 376.23 138C378.96 136.13 381.01 130.85 381.52 129.05C381.648 132.674 380.698 136.255 378.79 139.34C375.96 143.69 362.1 148.6 362.1 148.6L361.59 144Z" fill="#874C4C"/>
<path d="M359.7 112.73C359.733 113.097 359.837 113.454 360.009 113.781C360.18 114.108 360.414 114.398 360.697 114.634C360.98 114.87 361.308 115.047 361.66 115.156C362.012 115.266 362.383 115.304 362.75 115.27C363.321 115.23 363.868 115.02 364.32 114.667C364.771 114.315 365.106 113.835 365.283 113.289C365.459 112.744 365.468 112.159 365.308 111.608C365.149 111.058 364.829 110.568 364.388 110.201C363.948 109.835 363.408 109.608 362.838 109.551C362.268 109.494 361.694 109.609 361.189 109.881C360.685 110.153 360.274 110.569 360.008 111.077C359.743 111.585 359.635 112.16 359.7 112.73Z" fill="#263238"/>
<path d="M367.46 104.57L361.85 102.13C361.541 102.897 361.538 103.754 361.844 104.523C362.149 105.292 362.738 105.914 363.49 106.26C363.861 106.417 364.26 106.497 364.662 106.497C365.065 106.496 365.463 106.415 365.834 106.257C366.204 106.099 366.539 105.869 366.818 105.579C367.098 105.289 367.316 104.946 367.46 104.57Z" fill="#263238"/>
<path d="M365.08 127L356.36 131.43C356.626 132.019 357.008 132.548 357.483 132.986C357.959 133.424 358.518 133.761 359.126 133.978C359.735 134.195 360.382 134.286 361.027 134.247C361.672 134.208 362.302 134.039 362.88 133.75C364.052 133.131 364.937 132.081 365.348 130.821C365.758 129.561 365.662 128.19 365.08 127Z" fill="#874C4C"/>
<path d="M365.19 129C364.007 129.003 362.872 129.475 362.036 130.313C361.2 131.151 360.73 132.286 360.73 133.47C360.732 133.735 360.759 134 360.81 134.26C361.531 134.252 362.239 134.077 362.88 133.75C363.736 133.308 364.446 132.629 364.925 131.793C365.404 130.958 365.632 130.002 365.58 129.04C365.45 129.06 365.33 129 365.19 129Z" fill="#F28F8F"/>
<path d="M340.76 103.28L335.69 106.8C335.907 107.138 336.189 107.43 336.52 107.657C336.851 107.884 337.225 108.042 337.618 108.123C338.012 108.203 338.418 108.203 338.811 108.124C339.205 108.044 339.579 107.886 339.91 107.66C340.586 107.178 341.051 106.454 341.209 105.639C341.368 104.824 341.207 103.98 340.76 103.28Z" fill="#263238"/>
<path d="M339.59 114.31C339.672 114.845 339.909 115.344 340.271 115.745C340.634 116.146 341.107 116.432 341.63 116.567C342.154 116.701 342.706 116.68 343.217 116.503C343.729 116.327 344.177 116.005 344.507 115.576C344.836 115.148 345.033 114.631 345.072 114.092C345.11 113.553 344.99 113.014 344.725 112.542C344.46 112.071 344.063 111.687 343.582 111.44C343.101 111.192 342.558 111.091 342.02 111.15C341.653 111.197 341.298 111.316 340.977 111.5C340.655 111.685 340.374 111.931 340.148 112.224C339.922 112.518 339.757 112.854 339.661 113.212C339.565 113.569 339.541 113.943 339.59 114.31Z" fill="#263238"/>
<path d="M352.1 113.02L352.95 128.08L344.84 126.29L352.1 113.02Z" fill="#874C4C"/>
<path d="M418.59 157.77C428.14 163.92 431.74 175.06 427.13 191.46C422.07 209.46 412.58 231.93 402.29 247.37C398.14 253.59 395.89 255.37 377.2 252.37C367.74 250.84 358.31 248.81 348.95 246.76C337.74 244.3 324.64 241.04 315.67 236.76C312.659 235.362 309.943 233.4 307.67 230.98C306.907 230.182 306.313 229.238 305.925 228.204C305.537 227.171 305.363 226.07 305.413 224.967C305.462 223.864 305.735 222.783 306.214 221.788C306.693 220.793 307.368 219.906 308.2 219.18C317.52 210.3 320.08 218.11 326.86 220.35C326.86 220.35 330.86 220.35 332.77 220.61C334.5 220.82 334.62 220.53 336.07 221.47C339 223.36 340.89 224.92 342.67 225.18C354.56 226.93 382.12 228.71 382.12 228.71L399.64 186.32C399.64 186.32 409.47 156.17 418.59 157.77Z" fill="#9E6767"/>
<path d="M339.08 223.49C338.76 223.38 337.28 220.32 336.84 219.7C335.846 218.236 334.736 216.855 333.52 215.57C332.368 214.339 330.99 213.34 329.46 212.63C327.23 211.74 324.73 211.27 322.46 210.63C322.142 210.501 321.791 210.48 321.46 210.57C321.282 210.65 321.131 210.781 321.026 210.946C320.921 211.112 320.867 211.304 320.87 211.5C320.875 211.89 320.971 212.273 321.15 212.62C321.751 213.939 322.66 215.095 323.8 215.99C324.67 216.69 327.32 219.56 328.06 220.41C328 220.38 339.08 224.25 339.08 223.49Z" fill="#9E6767"/>
<path d="M413.68 155C420.94 156.8 427.21 159.12 429.55 169.11C431.89 179.1 431 184.31 422.07 207.36C416.64 221.36 412.31 229.8 412.31 229.8C412.31 229.8 407.11 216.6 387.21 215.14L400.12 176.38C400.12 176.38 407.62 159.46 413.68 155Z" fill="#00B39D"/>
<path d="M145.379 325.37C145.379 325.37 112.649 313.37 108.609 310.11C105.229 307.37 107.259 300.81 102.609 299.69C97.2194 298.4 93.3694 301.29 89.9094 304.47C86.6294 307.47 82.3494 308.84 74.2794 306.05C66.2094 303.26 58.4194 299.29 55.1494 300.87C51.8794 302.45 53.9994 305 68.1494 311.5C76.2594 315.24 86.5894 319.6 93.2094 322.21C97.9869 323.987 102.493 326.42 106.599 329.44C115.229 335.44 116.819 336.77 127.029 342.89C147.439 355.12 159.449 358.34 175.689 355.26L145.379 325.37Z" fill="#FFA8A7"/>
<path d="M114.74 313.3C108.23 317.05 105.09 321.18 104.74 328.39C104.74 328.39 109.13 331.79 116.08 336.6C124.4 342.36 144.54 355.47 157.99 356.84C178.85 358.96 185.46 352.68 185.46 352.68L114.74 313.3Z" fill="#455A64"/>
<path d="M108.7 317.94C119.38 335.94 145.47 347.11 153.7 347.94C150.81 345.57 146.56 337.5 142.53 328.75L114.74 313.3C112.497 314.523 110.459 316.088 108.7 317.94Z" fill="#37474F"/>
<path d="M47.4797 299.37C47.319 298.731 47.3048 298.063 47.4381 297.417C47.5714 296.772 47.8489 296.164 48.2497 295.64C51.1297 292.23 54.8097 290.43 57.3197 289.16C60.3654 287.745 63.7185 287.119 67.0697 287.34C73.4697 287.72 78.9698 292.49 85.3698 292.86C90.1398 293.14 94.4797 290.71 99.1297 289.58C100.595 289.226 102.105 289.095 103.61 289.19C104.89 289.27 106.91 290.19 107.37 291.24C108.005 292.516 108.13 293.986 107.72 295.35C107.43 296.21 105.66 297.85 104.38 298.75C102.64 299.99 100.46 300.34 97.8597 301.11C91.2997 303 61.9397 303.73 47.4797 299.37Z" fill="#37474F"/>
<path d="M108.76 308.32C108.76 308.9 108.86 309.46 108.92 310.05C109.01 310.84 108.58 311.05 107.92 311.54C105.23 313.39 101.83 313.21 98.7601 312.68C96.3701 312.26 93.9401 311.59 91.5501 312.05C88.7101 312.61 86.4401 314.69 84.3201 316.67C83.8557 317.106 83.4671 317.616 83.1701 318.18C83.1701 318.18 66.6601 311.13 59.1701 307.18C55.3701 305.18 50.9801 303.3 47.9901 300.12C47.8201 299.95 48.7201 298.83 48.8101 298.72C49.8201 297.634 51.1458 296.892 52.6001 296.6C54.9681 295.984 57.4307 295.818 59.8601 296.11C63.5501 296.66 67.1401 297.63 70.8001 298.35C74.0825 298.995 77.3973 299.462 80.7301 299.75C84.3611 300.07 88.0104 300.13 91.6501 299.93C95.0627 299.853 98.4307 299.137 101.58 297.82C102.808 297.285 103.956 296.582 104.99 295.73C105.589 295.129 106.113 294.457 106.55 293.73C107.06 293 107.37 291.73 107.89 292.81C109.15 295.29 109.41 299.11 109.23 301.89C109.11 303.8 108.86 305.7 108.79 307.62C108.75 307.85 108.75 308.08 108.76 308.32Z" fill="#00B39D"/>
<path opacity="0.2" d="M108.76 308.32C108.76 308.9 108.86 309.46 108.92 310.05C109.01 310.84 108.58 311.05 107.92 311.54C105.23 313.39 101.83 313.21 98.7601 312.68C96.3701 312.26 93.9401 311.59 91.5501 312.05C88.7101 312.61 86.4401 314.69 84.3201 316.67C83.8557 317.106 83.4671 317.616 83.1701 318.18C83.1701 318.18 66.6601 311.13 59.1701 307.18C55.3701 305.18 50.9801 303.3 47.9901 300.12C47.8201 299.95 48.7201 298.83 48.8101 298.72C49.8201 297.634 51.1458 296.892 52.6001 296.6C54.9681 295.984 57.4307 295.818 59.8601 296.11C63.5501 296.66 67.1401 297.63 70.8001 298.35C74.0825 298.995 77.3973 299.462 80.7301 299.75C84.3611 300.07 88.0104 300.13 91.6501 299.93C95.0627 299.853 98.4307 299.137 101.58 297.82C102.808 297.285 103.956 296.582 104.99 295.73C105.589 295.129 106.113 294.457 106.55 293.73C107.06 293 107.37 291.73 107.89 292.81C109.15 295.29 109.41 299.11 109.23 301.89C109.11 303.8 108.86 305.7 108.79 307.62C108.75 307.85 108.75 308.08 108.76 308.32Z" fill="black"/>
<path d="M65.7597 297.17C62.6797 301.4 62.6997 308.89 62.6997 308.89C62.6997 308.89 57.3997 306.67 52.1897 303.76C47.1897 300.97 47.4797 299.37 47.4797 299.37C47.7308 298.505 48.2402 297.738 48.9397 297.17C50.8325 295.651 53.2445 294.934 55.6597 295.17C59.0942 295.431 62.4851 296.102 65.7597 297.17Z" fill="#FAFAFA"/>
<path d="M65.5394 306.38C65.1587 307.581 65.0494 308.852 65.2194 310.1C65.7043 310.472 66.2637 310.735 66.8594 310.87C66.8311 309.585 66.9655 308.302 67.2594 307.05C67.5994 306 65.9094 305.35 65.5394 306.38Z" fill="#FAFAFA"/>
<path d="M70.5599 308.69C70.1657 309.888 70.0461 311.16 70.2099 312.41C70.7102 312.77 71.2783 313.025 71.8799 313.16C71.8244 311.881 71.9592 310.6 72.2799 309.36C72.6199 308.26 70.9299 307.65 70.5599 308.69Z" fill="#FAFAFA"/>
<path d="M75.5794 311C75.1973 312.187 75.0879 313.445 75.2594 314.68C75.7396 315.066 76.2999 315.339 76.8994 315.48C76.8708 314.198 77.0052 312.918 77.2994 311.67C77.6394 310.56 75.9994 310 75.5794 311Z" fill="#FAFAFA"/>
<path d="M107.86 292.79C107.836 292.239 107.667 291.705 107.37 291.24C107.37 291.24 105.72 294.63 99.8199 296.59C94.2199 298.45 86.2199 299.35 74.6799 296.69C63.1399 294.03 56.4699 291.55 51.2499 293.62C46.0299 295.69 47.4799 299.37 47.4799 299.37C47.4799 299.37 49.9699 294.78 57.2899 295.64C64.3499 296.47 74.7299 300.21 84.3899 300.56C94.4799 300.94 104.67 299.65 107.86 292.79Z" fill="#E0E0E0"/>
<path d="M225.19 314.68C220.19 298.94 206.6 289.77 194.51 279.63C182.42 269.49 163.13 252.5 163.13 252.5L95.1303 238.78C90.8903 247.46 86.6304 264.05 86.6104 276.67C86.6104 288.44 90.1803 304.21 110.78 319.5C123.27 328.77 133.24 336.05 142.19 341.74C151.65 347.74 172.53 358.33 184.84 354.17C188.637 352.98 191.826 350.369 193.742 346.882C195.657 343.395 196.151 339.303 195.12 335.46C196.57 335.59 198.01 335.67 199.35 335.68C200.91 335.73 202.35 335.68 203.46 335.68C207.537 335.792 211.6 335.175 215.46 333.86C224 330.74 228.08 323.81 225.19 314.68Z" fill="#455A64"/>
<path d="M198.06 335C196.73 335 195.28 334.91 193.84 334.77C186.24 318.56 144.51 285.39 144.51 285.39C147.88 283.75 155.69 279.57 158.31 274.87C157.24 280.87 153.8 283.87 150.47 286.33C155.59 290.92 177.11 309.06 182.86 314.51C188.89 320.22 195.15 326.86 198.06 335Z" fill="#37474F"/>
<path d="M148.9 152.7C157.78 153.4 162.01 155.87 170.78 165.56C179.55 175.25 195.78 192.79 198.7 197.34C201.62 201.89 210.11 211.73 197.33 219.1C184.55 226.47 157.22 228.94 157.22 228.94L148.9 152.7Z" fill="#F28F8F"/>
<path d="M164.5 207.05C176.37 197.29 172.5 184.56 168.13 175.99C159.46 158.85 150.44 152.11 146.68 152.17L122.68 149.06C113.016 150.57 103.682 153.723 95.0803 158.38C85.7003 163.8 88.2003 169.98 89.4503 175.6C92.8303 190.89 97.1003 199.6 98.3703 204.23C99.6403 208.86 101.98 216.08 100.08 223.58C99.3403 226.48 97.3803 229.3 94.4103 237.3C91.7969 243.874 89.7886 250.672 88.4103 257.61C88.4103 257.61 107.49 275.09 141.15 270.28C165.93 266.74 169.08 257.69 169.08 257.69L163.27 227.21C163.86 217.1 164 213.43 164.5 207.05Z" fill="#00B39D"/>
<g opacity="0.5">
<path opacity="0.5" d="M164.5 207.05C176.37 197.29 172.5 184.56 168.13 175.99C159.46 158.85 150.44 152.11 146.68 152.17L122.68 149.06C113.016 150.57 103.682 153.723 95.0803 158.38C85.7003 163.8 88.2003 169.98 89.4503 175.6C92.8303 190.89 97.1003 199.6 98.3703 204.23C99.6403 208.86 101.98 216.08 100.08 223.58C99.3403 226.48 97.3803 229.3 94.4103 237.3C91.7969 243.874 89.7886 250.672 88.4103 257.61C88.4103 257.61 107.49 275.09 141.15 270.28C165.93 266.74 169.08 257.69 169.08 257.69L163.27 227.21C163.86 217.1 164 213.43 164.5 207.05Z" fill="white"/>
</g>
<path d="M157 75.6902C144.27 68.8202 127.88 71.5302 121.44 81.8202C121.44 81.8202 114.95 80.6102 108.44 86.2902C101.09 92.7502 101.16 102.49 101.06 111.44C100.94 121.87 97.0599 125 95.6399 133.02C94.2199 141.04 99.6399 146.33 105.57 147.02C105.57 147.02 103.57 139.68 105.68 136.28C105.68 136.28 105.04 146.79 115.04 148.57C123.09 150.01 129.14 144.57 129.14 144.57C129.14 144.57 119.08 142.82 117.35 136.69L118.44 126.46L136.66 146.1C147.15 155.2 161.89 149.49 162.32 145.31C162.32 145.31 150.44 133.04 166.47 117.7C182.5 102.36 169.72 82.5502 157 75.6902Z" fill="#37474F"/>
<path d="M166.13 122C163.84 140.31 157.42 144.24 154.31 145.24C151.2 146.24 145.5 144.86 140.01 143.37L139.12 152.1C139.12 152.1 147.69 160.55 145.48 162.57C141.36 166.33 130.48 164.57 125.22 161.66C121.552 159.786 118.467 156.943 116.3 153.44C115.847 152.694 115.693 151.805 115.87 150.95L118.47 126.45C118.47 126.45 115.54 128.18 111.13 125.21C107.13 122.54 106.28 114.21 109.99 110.62C112.64 108.08 117.55 108.15 119.99 112.76C121.28 116.1 120.51 119.13 122.76 119.03C125.01 118.93 125.97 116.83 126.33 115.09C126.69 113.35 126.9 112.09 127.33 109.82C132.89 109.3 139.06 101.82 140.33 96.4402C144 98.5802 147.91 100.31 151.8 100.51C157.92 100.81 161.2 99.9702 164.7 95.9502C165.302 97.0295 165.74 98.1922 166 99.4002C166.557 101.838 166.892 104.322 167 106.82C167.125 111.895 166.834 116.972 166.13 122Z" fill="#FFA8A7"/>
<path d="M140 143.35C134.17 141.98 122.38 137.26 121 132.26C121 132.26 121.32 135.34 124.64 138.82C127.96 142.3 139.64 147.03 139.64 147.03L140 143.35Z" fill="#F28F8F"/>
<path d="M146.2 115.78C146.156 116.281 145.966 116.757 145.654 117.15C145.341 117.544 144.919 117.836 144.442 117.992C143.964 118.147 143.451 118.158 142.967 118.024C142.483 117.89 142.049 117.617 141.719 117.238C141.389 116.859 141.178 116.391 141.112 115.893C141.046 115.395 141.128 114.889 141.348 114.437C141.567 113.986 141.915 113.608 142.348 113.353C142.78 113.097 143.278 112.975 143.78 113C144.122 113.023 144.456 113.113 144.762 113.266C145.069 113.418 145.343 113.629 145.568 113.887C145.793 114.146 145.964 114.446 146.073 114.771C146.181 115.096 146.225 115.439 146.2 115.78Z" fill="#263238"/>
<path d="M163.45 116.73C163.439 117.04 163.366 117.345 163.237 117.627C163.107 117.909 162.924 118.162 162.696 118.373C162.468 118.584 162.202 118.748 161.911 118.855C161.62 118.963 161.31 119.012 161 119C160.683 119.001 160.369 118.933 160.08 118.801C159.791 118.669 159.534 118.477 159.326 118.237C159.118 117.997 158.965 117.714 158.876 117.41C158.787 117.105 158.764 116.784 158.81 116.47C158.819 116.16 158.89 115.854 159.018 115.571C159.145 115.288 159.328 115.033 159.555 114.821C159.782 114.609 160.049 114.444 160.34 114.336C160.631 114.228 160.94 114.178 161.25 114.19C161.879 114.236 162.463 114.53 162.875 115.006C163.288 115.482 163.494 116.102 163.45 116.73Z" fill="#263238"/>
<path d="M152.481 111.44L151.261 128.79L159.631 127.06L152.481 111.44Z" fill="#F28F8F"/>
<path d="M137.471 108L142.561 104.21C143.055 104.911 143.259 105.774 143.133 106.622C143.006 107.469 142.558 108.235 141.881 108.76C141.544 109.009 141.161 109.186 140.754 109.283C140.348 109.379 139.926 109.392 139.514 109.321C139.102 109.25 138.708 109.096 138.357 108.869C138.006 108.643 137.705 108.347 137.471 108Z" fill="#263238"/>
<path d="M141.81 128.72L149.62 132.33C149.103 133.372 148.205 134.175 147.112 134.572C146.019 134.969 144.814 134.929 143.75 134.46C143.237 134.221 142.777 133.88 142.4 133.458C142.022 133.036 141.734 132.541 141.553 132.005C141.371 131.469 141.301 130.901 141.345 130.336C141.389 129.772 141.547 129.222 141.81 128.72Z" fill="#874C4C"/>
<path d="M143.751 134.46C143.028 134.127 142.418 133.592 141.994 132.92C141.57 132.247 141.35 131.465 141.361 130.67C141.828 130.551 142.312 130.517 142.791 130.57C143.798 130.703 144.718 131.214 145.362 131.999C146.007 132.785 146.328 133.786 146.261 134.8C145.409 134.947 144.533 134.829 143.751 134.46Z" fill="#F28F8F"/>
<path d="M161.891 105.13L166.501 109.56C166.226 109.874 165.891 110.128 165.515 110.308C165.139 110.488 164.731 110.589 164.314 110.606C163.898 110.623 163.483 110.555 163.093 110.406C162.704 110.257 162.349 110.031 162.051 109.74C161.439 109.139 161.081 108.325 161.051 107.467C161.021 106.61 161.322 105.773 161.891 105.13Z" fill="#263238"/>
<path d="M173.299 171.221C172.127 171.042 170.965 170.798 169.819 170.491C167.704 169.839 165.488 169.574 163.279 169.711C160.999 169.911 157.949 170.861 156.339 172.471C155.669 173.131 155.419 174.701 156.529 175.091C156.489 175.351 156.522 175.618 156.627 175.861C156.731 176.103 156.902 176.311 157.119 176.461C157.642 176.81 158.28 176.942 158.899 176.831C158.899 177.451 159.899 177.831 160.899 177.741C162.297 177.366 163.743 177.204 165.189 177.261C168.239 177.351 168.759 178.511 168.759 178.511" fill="#455A64"/>
<path d="M161.29 174.83C160.613 174.708 159.915 174.846 159.337 175.217C158.758 175.588 158.341 176.164 158.17 176.83C158.413 176.845 158.657 176.845 158.9 176.83C158.989 176.264 159.281 175.75 159.72 175.382C160.159 175.015 160.717 174.818 161.29 174.83Z" fill="#37474F"/>
<path d="M159 172.941C158.38 172.907 157.764 173.059 157.23 173.376C156.696 173.692 156.268 174.16 156 174.721C156.125 174.888 156.295 175.016 156.49 175.091C156.664 174.532 156.992 174.035 157.436 173.655C157.88 173.274 158.422 173.027 159 172.941Z" fill="#37474F"/>
<path d="M200.12 163.67L195.12 165.06L185.12 167.84L184.23 168.06L181.91 168.45C180.275 168.603 178.654 168.877 177.06 169.27H176.71C176.072 169.297 175.441 169.405 174.83 169.59C174.425 169.902 174.037 170.235 173.67 170.59L172.61 171.59C172.49 171.72 172.37 171.85 172.25 172L169.13 177.45C168.448 178.308 167.525 178.942 166.48 179.27C164.845 179.618 163.381 180.523 162.34 181.83C162.23 181.665 162.082 181.528 161.908 181.432C161.733 181.337 161.539 181.284 161.34 181.28C161.297 180.995 161.183 180.726 161.008 180.497C160.833 180.268 160.603 180.087 160.34 179.97C159.702 179.708 158.99 179.69 158.34 179.92C158.34 179.41 157.47 178.75 155.73 179.14C152.29 179.91 150.26 181.28 146.68 183.54C142.22 186.36 140.78 188.93 140.85 191.04C140.832 191.719 140.999 192.39 141.332 192.981C141.664 193.573 142.151 194.063 142.74 194.4C142.74 194.4 128.87 207.66 147.88 218.92C166.34 229.85 190.48 218.17 198.02 200.67C199.997 196.026 201.228 191.099 201.67 186.07C202.7 176.44 200.79 169 200.12 163.67Z" fill="#455A64"/>
<path d="M161.929 185.15C161.929 185.15 164.929 183.81 166.309 185.45C166.659 185.285 167.045 185.211 167.431 185.233C167.817 185.256 168.191 185.375 168.519 185.58C168.789 185.757 168.995 186.015 169.109 186.317C169.222 186.619 169.236 186.95 169.149 187.26C169.365 187.277 169.572 187.351 169.748 187.477C169.924 187.602 170.063 187.772 170.149 187.97C170.263 188.341 170.288 188.733 170.222 189.116C170.156 189.498 170.001 189.859 169.769 190.17C169.229 191.188 168.49 192.087 167.597 192.815C166.704 193.543 165.675 194.085 164.569 194.41C165.645 195.031 166.557 195.899 167.23 196.942C167.903 197.986 168.318 199.175 168.439 200.41C169.129 205.25 167.579 207.76 167.579 207.76C173.955 206.213 179.605 202.52 183.579 197.3C192.039 186.44 188.979 167.3 188.979 167.3L174.819 169.69C173.331 170.477 172.043 171.595 171.055 172.957C170.067 174.32 169.405 175.891 169.119 177.55C166.194 177.825 163.392 178.859 160.989 180.55C161.142 180.797 161.253 181.068 161.319 181.35C161.514 181.37 161.704 181.428 161.876 181.523C162.048 181.617 162.198 181.746 162.319 181.9C162.682 182.389 162.844 182.998 162.772 183.603C162.699 184.208 162.398 184.761 161.929 185.15Z" fill="#00B39D"/>
<path opacity="0.3" d="M161.929 185.15C161.929 185.15 164.929 183.81 166.309 185.45C166.659 185.285 167.045 185.211 167.431 185.233C167.817 185.256 168.191 185.375 168.519 185.58C168.789 185.757 168.995 186.015 169.109 186.317C169.222 186.619 169.236 186.95 169.149 187.26C169.365 187.277 169.572 187.351 169.748 187.477C169.924 187.602 170.063 187.772 170.149 187.97C170.263 188.341 170.288 188.733 170.222 189.116C170.156 189.498 170.001 189.859 169.769 190.17C169.229 191.188 168.49 192.087 167.597 192.815C166.704 193.543 165.675 194.085 164.569 194.41C165.645 195.031 166.557 195.899 167.23 196.942C167.903 197.986 168.318 199.175 168.439 200.41C169.129 205.25 167.579 207.76 167.579 207.76C173.955 206.213 179.605 202.52 183.579 197.3C192.039 186.44 188.979 167.3 188.979 167.3L174.819 169.69C173.331 170.477 172.043 171.595 171.055 172.957C170.067 174.32 169.405 175.891 169.119 177.55C166.194 177.825 163.392 178.859 160.989 180.55C161.142 180.797 161.253 181.068 161.319 181.35C161.514 181.37 161.704 181.428 161.876 181.523C162.048 181.617 162.198 181.746 162.319 181.9C162.682 182.389 162.844 182.998 162.772 183.603C162.699 184.208 162.398 184.761 161.929 185.15Z" fill="black"/>
<path opacity="0.1" d="M182.89 180C180.57 179.91 177.38 180.48 175.55 181.89C174.79 182.47 174.35 184.01 175.41 184.55C175.336 184.806 175.336 185.078 175.408 185.334C175.481 185.59 175.623 185.821 175.82 186C176.302 186.421 176.93 186.637 177.57 186.6C177.51 187.23 178.43 187.79 179.45 187.77C180.85 187.77 181.24 187.3 183.83 187.84C185.202 188.149 186.457 188.843 187.45 189.84C188.306 187.194 188.886 184.466 189.18 181.7C187.215 180.726 185.077 180.149 182.89 180Z" fill="black"/>
<path d="M189.53 180.15C187.465 179.09 185.205 178.464 182.89 178.31C180.57 178.21 177.38 178.79 175.55 180.2C174.79 180.78 174.35 182.32 175.41 182.86C175.336 183.116 175.336 183.388 175.408 183.644C175.481 183.9 175.623 184.131 175.82 184.31C176.304 184.728 176.931 184.942 177.57 184.91C177.51 185.54 178.43 186.1 179.45 186.08C180.85 186.08 181.24 185.61 183.83 186.15C185.418 186.506 186.847 187.369 187.9 188.61L192.57 181.41C191.517 181.093 190.498 180.671 189.53 180.15Z" fill="#455A64"/>
<path d="M179.94 183.26C179.58 183.087 179.18 183.014 178.783 183.05C178.385 183.085 178.004 183.227 177.68 183.46C177.452 183.612 177.262 183.813 177.121 184.049C176.981 184.284 176.895 184.548 176.87 184.82C177.101 184.867 177.335 184.898 177.57 184.91C177.62 183.84 178.81 183.22 179.94 183.26Z" fill="#37474F"/>
<path d="M174.89 182.31C174.989 182.552 175.175 182.747 175.41 182.86C175.574 182.498 175.828 182.183 176.149 181.947C176.469 181.711 176.845 181.56 177.24 181.51C176.812 181.432 176.372 181.464 175.96 181.604C175.549 181.744 175.18 181.987 174.89 182.31Z" fill="#37474F"/>
<path opacity="0.1" d="M201.849 176.59C201.489 171.39 200.549 167.09 200.119 163.67L195.119 165.06L185.119 167.84L184.229 168.06L181.909 168.45C180.274 168.603 178.653 168.877 177.059 169.27H176.709C176.071 169.293 175.439 169.4 174.829 169.59C174.511 169.746 174.204 169.923 173.909 170.12C174.569 170.94 177.059 173.58 182.549 174.78C189.089 176.22 196.029 174.03 196.029 174.03C196.599 175.022 197.471 175.806 198.519 176.267C199.566 176.727 200.733 176.841 201.849 176.59Z" fill="black"/>
<path d="M190.38 143.69C189.9 141.9 187.66 141.12 184.08 141.05C181.25 140.99 178.55 141.85 174.38 139.98C170.21 138.11 166.76 138.98 165.63 143.18C164.5 147.38 165.46 152.54 170.04 154.33C174.28 155.99 181.17 155.14 185.04 152.49C188.91 149.84 190.38 143.69 190.38 143.69Z" fill="#37474F"/>
<path d="M178 141.91C178.095 141.641 178.165 141.363 178.21 141.08C176.882 140.911 175.587 140.54 174.37 139.98C170.19 138.1 166.75 138.98 165.63 143.18C165.243 144.613 165.118 146.103 165.26 147.58C166.084 148.081 167.004 148.401 167.96 148.52C168.339 148.595 168.73 148.578 169.101 148.47C169.471 148.362 169.811 148.167 170.09 147.9C170.7 147.16 170.48 145.9 171.09 145.23C171.7 144.56 173.09 144.71 174.18 144.66C175.012 144.61 175.812 144.324 176.488 143.838C177.164 143.351 177.688 142.683 178 141.91Z" fill="#00B39D"/>
<path opacity="0.4" d="M178 141.91C178.095 141.641 178.165 141.363 178.21 141.08C176.882 140.911 175.587 140.54 174.37 139.98C170.19 138.1 166.75 138.98 165.63 143.18C165.243 144.613 165.118 146.103 165.26 147.58C166.084 148.081 167.004 148.401 167.96 148.52C168.339 148.595 168.73 148.578 169.101 148.47C169.471 148.362 169.811 148.167 170.09 147.9C170.7 147.16 170.48 145.9 171.09 145.23C171.7 144.56 173.09 144.71 174.18 144.66C175.012 144.61 175.812 144.324 176.488 143.838C177.164 143.351 177.688 142.683 178 141.91Z" fill="black"/>
<path d="M201.699 151.681C199.699 147.371 198.569 146.411 193.009 144.451C187.449 142.491 184.009 142.711 179.139 145.721C176.059 147.621 174.819 152.661 174.819 152.661C173.835 152.789 172.886 153.111 172.028 153.609C171.17 154.107 170.419 154.77 169.819 155.561C167.669 158.861 169.309 164.741 170.699 166.721C172.963 169.893 176.348 172.084 180.169 172.851C187.319 174.311 193.089 173.851 196.679 170.201C201.179 165.651 203.159 154.821 201.699 151.681Z" fill="#455A64"/>
<path d="M200.649 158.67C200.751 158.16 200.798 157.64 200.789 157.12C200.789 155.48 200.419 153.29 199.309 152.04C198.449 150.762 197.204 149.792 195.754 149.27C194.305 148.749 192.727 148.703 191.25 149.14C189.465 149.508 187.882 150.528 186.809 152C185.809 153.51 185.49 155.24 186.89 156.58C187.42 157.013 187.921 157.481 188.39 157.98C189.03 158.79 189.299 159.85 189.899 160.69C190.578 161.611 191.553 162.271 192.66 162.56C193.757 162.845 194.901 162.896 196.02 162.71C196.732 162.667 197.429 162.478 198.067 162.157C198.705 161.835 199.27 161.387 199.729 160.84C200.185 160.189 200.499 159.45 200.649 158.67Z" fill="#00B39D"/>
<path opacity="0.3" d="M200.649 158.67C200.751 158.16 200.798 157.64 200.789 157.12C200.789 155.48 200.419 153.29 199.309 152.04C198.449 150.762 197.204 149.792 195.754 149.27C194.305 148.749 192.727 148.703 191.25 149.14C189.465 149.508 187.882 150.528 186.809 152C185.809 153.51 185.49 155.24 186.89 156.58C187.42 157.013 187.921 157.481 188.39 157.98C189.03 158.79 189.299 159.85 189.899 160.69C190.578 161.611 191.553 162.271 192.66 162.56C193.757 162.845 194.901 162.896 196.02 162.71C196.732 162.667 197.429 162.478 198.067 162.157C198.705 161.835 199.27 161.387 199.729 160.84C200.185 160.189 200.499 159.45 200.649 158.67Z" fill="black"/>
<path d="M191.699 154.75C191.701 155.078 191.606 155.398 191.425 155.671C191.245 155.944 190.987 156.157 190.685 156.283C190.384 156.409 190.051 156.442 189.73 156.379C189.409 156.316 189.114 156.158 188.883 155.927C188.651 155.696 188.494 155.401 188.431 155.08C188.367 154.759 188.401 154.426 188.527 154.124C188.653 153.822 188.866 153.565 189.139 153.384C189.412 153.204 189.732 153.108 190.059 153.11C190.494 153.113 190.909 153.287 191.216 153.594C191.523 153.901 191.697 154.316 191.699 154.75Z" fill="#263238"/>
<path d="M180.08 151.681C180.08 152.005 179.984 152.322 179.803 152.592C179.623 152.861 179.367 153.072 179.067 153.196C178.768 153.32 178.438 153.352 178.12 153.289C177.802 153.226 177.51 153.07 177.28 152.84C177.051 152.611 176.895 152.319 176.831 152C176.768 151.682 176.801 151.353 176.925 151.053C177.049 150.753 177.259 150.497 177.529 150.317C177.798 150.137 178.115 150.041 178.44 150.041C178.875 150.041 179.292 150.213 179.599 150.521C179.907 150.828 180.08 151.246 180.08 151.681Z" fill="#263238"/>
<path d="M176.109 165.19H175.999C175.949 165.181 175.9 165.161 175.857 165.133C175.814 165.104 175.777 165.068 175.748 165.025C175.719 164.982 175.699 164.934 175.689 164.884C175.679 164.833 175.679 164.781 175.689 164.73L176.419 160.94C176.439 160.838 176.499 160.748 176.585 160.69C176.671 160.632 176.777 160.61 176.879 160.63C176.981 160.65 177.071 160.71 177.13 160.796C177.188 160.882 177.209 160.988 177.189 161.09L176.459 164.88C176.441 164.962 176.397 165.036 176.334 165.092C176.271 165.147 176.193 165.182 176.109 165.19Z" fill="#263238"/>
<path d="M178.46 156.51C176.46 155.9 174.91 156 174.53 156.75C173.92 158.01 174.83 159.85 175.46 160.58C175.812 160.892 176.225 161.126 176.672 161.269C177.12 161.412 177.592 161.46 178.06 161.41C179.19 161.29 181 160.56 181.34 159.41C181.68 158.26 180.61 157.17 178.46 156.51Z" fill="#263238"/>
<path d="M175.3 156.66C175.034 156.819 174.837 157.07 174.745 157.365C174.653 157.66 174.672 157.979 174.8 158.26C175.03 158.67 175.43 157.14 176.52 157.14C177.761 157.269 178.957 157.676 180.02 158.33C180.7 158.77 180.72 157.97 179.37 157.33C177.72 156.45 176.16 156.21 175.3 156.66Z" fill="#37474F"/>
<path d="M178.52 165.56C178.28 165.56 178.05 165.56 177.81 165.56C177.102 165.551 176.402 165.403 175.752 165.123C175.102 164.843 174.513 164.438 174.02 163.93C173.956 163.848 173.928 163.744 173.941 163.641C173.954 163.538 174.007 163.444 174.09 163.38C174.172 163.317 174.276 163.288 174.379 163.301C174.482 163.315 174.576 163.368 174.64 163.45C175.51 164.283 176.665 164.755 177.87 164.77C178.649 164.876 179.442 164.822 180.199 164.612C180.957 164.402 181.665 164.041 182.28 163.55C182.317 163.515 182.361 163.487 182.409 163.469C182.457 163.45 182.509 163.442 182.56 163.443C182.612 163.444 182.662 163.456 182.71 163.477C182.757 163.498 182.799 163.528 182.835 163.565C182.87 163.603 182.898 163.647 182.916 163.695C182.935 163.743 182.943 163.794 182.942 163.846C182.941 163.898 182.929 163.948 182.908 163.995C182.887 164.042 182.857 164.085 182.82 164.12C181.615 165.117 180.082 165.631 178.52 165.56Z" fill="#263238"/>
<path d="M198.479 147.001C200.679 147.251 205.059 148.291 206.409 150.381C207.759 152.471 212.039 159.451 210.869 166.001C210.498 168.404 209.255 170.586 207.378 172.132C205.5 173.677 203.119 174.478 200.689 174.381C197.109 174.021 194.909 172.381 196.689 167.221C198.469 162.061 199.819 154.801 198.509 151.341C197.329 148.181 195.999 146.741 198.479 147.001Z" fill="#37474F"/>
<path d="M209.18 155.581C208.268 156.909 207.032 157.983 205.59 158.701C204.902 158.968 204.25 159.321 203.65 159.751C203.353 159.97 203.126 160.271 202.998 160.618C202.87 160.964 202.846 161.341 202.93 161.701C203.23 162.571 204.27 162.881 205.15 163.131C206.03 163.381 207.06 163.901 207.07 164.821C207.07 165.481 206.54 166.041 206.49 166.701C206.502 166.938 206.563 167.171 206.669 167.383C206.774 167.596 206.923 167.785 207.105 167.938C207.287 168.091 207.499 168.205 207.727 168.272C207.955 168.34 208.194 168.36 208.43 168.331C209.322 168.171 210.119 167.678 210.66 166.951C210.74 166.651 210.81 166.351 210.87 166.031C211.52 162.371 210.47 158.581 209.18 155.581Z" fill="#00B39D"/>
<path opacity="0.4" d="M209.18 155.581C208.268 156.909 207.032 157.983 205.59 158.701C204.902 158.968 204.25 159.321 203.65 159.751C203.353 159.97 203.126 160.271 202.998 160.618C202.87 160.964 202.846 161.341 202.93 161.701C203.23 162.571 204.27 162.881 205.15 163.131C206.03 163.381 207.06 163.901 207.07 164.821C207.07 165.481 206.54 166.041 206.49 166.701C206.502 166.938 206.563 167.171 206.669 167.383C206.774 167.596 206.923 167.785 207.105 167.938C207.287 168.091 207.499 168.205 207.727 168.272C207.955 168.34 208.194 168.36 208.43 168.331C209.322 168.171 210.119 167.678 210.66 166.951C210.74 166.651 210.81 166.351 210.87 166.031C211.52 162.371 210.47 158.581 209.18 155.581Z" fill="black"/>
<path d="M161.93 185.15C156.04 187.73 150.42 190.6 149.35 193.98C148.28 197.36 151.15 198.14 151.15 198.14C151.15 198.14 148.21 198 148.21 195.31C148.21 192.62 150.65 188.45 161.93 185.15Z" fill="#37474F"/>
<path d="M166.24 188C166.9 187.91 168.11 187.46 168.24 186.66C168.31 186.11 167.83 186 167.37 186.01C166.73 186.03 166.113 186.255 165.61 186.65C164.82 187.32 165.29 188.13 166.24 188Z" fill="#37474F"/>
<path d="M167.289 190C167.959 190 169.229 189.81 169.469 189C169.629 188.47 169.189 188.28 168.729 188.2C168.099 188.1 167.453 188.209 166.889 188.51C165.999 189.06 166.339 189.94 167.289 190Z" fill="#37474F"/>
<path d="M163.25 187C163.87 187 165.02 186.67 165.18 185.95C165.3 185.45 164.87 185.3 164.45 185.27C163.858 185.224 163.267 185.375 162.77 185.7C162 186.23 162.37 187 163.25 187Z" fill="#37474F"/>
<path d="M163.82 188.39C163.12 187.73 162.1 187.14 159.02 188.02C155.94 188.9 154.87 190.32 155.61 190.97C156.7 191.91 158.49 190.44 158.08 192.63C157.85 193.87 159.49 194.79 162.28 192.63C165.07 190.47 164.59 189.11 163.82 188.39Z" fill="#37474F"/>
<path d="M158 182.62C158.66 182.54 159.87 182.09 160 181.28C160.07 180.74 159.59 180.63 159.13 180.63C158.49 180.65 157.873 180.875 157.37 181.27C156.61 181.94 157.08 182.74 158 182.62Z" fill="#37474F"/>
<path d="M159.079 184.6C159.749 184.6 161.009 184.41 161.259 183.6C161.419 183.08 160.979 182.88 160.519 182.81C159.885 182.713 159.237 182.822 158.669 183.12C157.799 183.67 158.129 184.55 159.079 184.6Z" fill="#37474F"/>
<path d="M155 181.6C155.62 181.6 156.77 181.28 156.93 180.6C157.05 180.1 156.62 179.96 156.2 179.92C155.608 179.879 155.019 180.03 154.52 180.35C153.8 180.84 154.16 181.62 155 181.6Z" fill="#37474F"/>
<path d="M155.61 183C154.91 182.35 153.89 181.75 150.81 182.63C147.73 183.51 146.66 184.94 147.4 185.63C148.49 186.57 150.28 185.1 149.87 187.29C149.64 188.54 151.28 189.45 154.07 187.29C156.86 185.13 156.37 183.72 155.61 183Z" fill="#37474F"/>
<path d="M142.74 210.29C142.646 210.454 142.508 210.587 142.342 210.676C142.175 210.764 141.988 210.804 141.8 210.79C135.27 210.28 126.52 204.79 123 197.19C119.39 189.35 122.3 180.19 123.59 180.07C124.88 179.95 122.28 185.21 123.76 191.82C125.12 197.9 130.76 205.45 141.98 207.3C142.161 207.327 142.331 207.402 142.472 207.519C142.613 207.635 142.719 207.788 142.78 207.96C143.071 208.712 143.057 209.549 142.74 210.29Z" fill="#37474F"/>
<path opacity="0.1" d="M200.18 194.51C199.18 194.32 198.63 194.81 197.57 195.62C196.51 196.43 195.23 197.41 194.32 198.16C191.145 200.804 187.279 202.484 183.18 203C181.405 203.283 179.604 203.367 177.81 203.25C177.411 203.252 177.018 203.163 176.659 202.99C176.301 202.816 175.986 202.564 175.74 202.25C175.587 201.882 175.516 201.484 175.531 201.086C175.547 200.687 175.649 200.296 175.83 199.94C176.412 198.467 176.873 196.949 177.21 195.4C177.43 194.07 177.56 191.29 176.34 190.34C176.089 190.183 175.795 190.108 175.499 190.126C175.203 190.144 174.92 190.254 174.69 190.44C174.104 190.987 173.593 191.609 173.17 192.29C171.707 194.139 170.371 196.083 169.17 198.11C168.621 196.659 167.666 195.395 166.42 194.47C170.09 191.77 169.86 190.13 169.86 190.13C167.86 193.05 163.2 194.41 163.2 194.41C164.471 195.032 165.551 195.986 166.326 197.17C167.1 198.355 167.54 199.726 167.6 201.14C166.985 202.52 166.21 203.822 165.29 205.02C163.499 207.075 161.172 208.591 158.57 209.4C156.74 210.02 147.84 210.87 139.8 211.54C141.31 213.99 143.87 216.54 147.96 218.93C166.42 229.86 190.56 218.18 198.1 200.68C198.972 198.671 199.691 196.599 200.25 194.48L200.18 194.51Z" fill="black"/>
<path d="M131.24 236.32C136.5 235.52 141.73 234.46 146.91 233.22C159.36 230.22 172.12 226.29 183.51 220.37C187.074 218.537 190.464 216.385 193.64 213.94C195.215 212.851 196.605 211.518 197.76 209.99C198.895 208.356 199.873 206.618 200.68 204.8C201.714 202.484 202.17 199.952 202.01 197.42C201.94 196.65 201.65 195.73 200.89 195.59C199.89 195.41 199.27 196.73 198.7 197.34C197.92 198.215 197.085 199.04 196.2 199.81C193.018 202.443 189.156 204.122 185.06 204.65C183.285 204.933 181.484 205.017 179.69 204.9C179.292 204.901 178.898 204.812 178.54 204.638C178.181 204.465 177.867 204.213 177.62 203.9C177.467 203.532 177.396 203.134 177.411 202.735C177.427 202.337 177.529 201.946 177.71 201.59C178.293 200.117 178.755 198.599 179.09 197.05C179.31 195.73 179.44 192.94 178.22 192C177.969 191.843 177.675 191.767 177.379 191.785C177.083 191.803 176.8 191.913 176.57 192.1C175.979 192.642 175.467 193.265 175.05 193.95C173.435 195.942 171.981 198.059 170.7 200.28C169.53 202.43 168.7 204.78 167.13 206.68C165.341 208.735 163.014 210.249 160.41 211.05C157.41 212.05 135.06 213.73 129.17 214.16L115 184C115 184 107.51 160.68 95.1399 158.43C88.6799 162.09 86.7899 165.27 85.8399 172.43C84.8899 179.59 87.6599 185.66 90.8399 195.33C94.0199 205 109.08 228.14 113.33 232.75C117.58 237.36 119.83 237.36 127.03 236.88C128.44 236.73 129.84 236.53 131.24 236.32Z" fill="#FFA8A7"/>
<path d="M316.851 316.54L234.581 269.04L152.311 316.54L234.581 364.04L316.851 316.54Z" fill="#00B39D"/>
<path opacity="0.4" d="M316.851 316.54L234.581 269.04L152.311 316.54L234.581 364.04L316.851 316.54Z" fill="white"/>
<path opacity="0.1" d="M316.851 316.54L234.581 269.04L152.311 316.54L234.581 364.04L316.851 316.54Z" fill="black"/>
<path opacity="0.1" d="M234.581 338.13V269.04L152.311 316.54V385.63L234.581 338.13Z" fill="black"/>
<path opacity="0.2" d="M234.581 338.13L152.311 385.63L234.581 433.13L316.851 385.63L234.581 338.13Z" fill="black"/>
<path d="M276.42 180.83C272.69 179.68 270.69 180.34 267.42 183.11C264.15 185.88 263.3 186.58 263 190C262.7 193.42 263.71 200.68 267.41 199.54C271.11 198.4 276.42 180.83 276.42 180.83Z" fill="#37474F"/>
<path d="M233 287.34C232.31 295.12 238.07 312.41 237.51 316.72C236.95 321.03 233.72 328.44 231.44 332.03C229.44 335.21 228.87 336.68 231.44 343.16C234.01 349.64 238.89 359.16 239.99 361.1C241.09 363.04 244.55 361.91 247.99 360.56C251.43 359.21 255.99 356.41 253.23 353.15C251.95 351.63 244.46 354.15 244.46 354.15C244.46 354.15 240.73 343.15 241.36 339.44C241.99 335.73 251.68 327.61 256.76 319.91C261.84 312.21 255.02 289.67 255.02 289.67L233 287.34Z" fill="#00B39D"/>
<path opacity="0.55" d="M233 287.34C232.31 295.12 238.07 312.41 237.51 316.72C236.95 321.03 233.72 328.44 231.44 332.03C229.44 335.21 228.87 336.68 231.44 343.16C234.01 349.64 238.89 359.16 239.99 361.1C241.09 363.04 244.55 361.91 247.99 360.56C251.43 359.21 255.99 356.41 253.23 353.15C251.95 351.63 244.46 354.15 244.46 354.15C244.46 354.15 240.73 343.15 241.36 339.44C241.99 335.73 251.68 327.61 256.76 319.91C261.84 312.21 255.02 289.67 255.02 289.67L233 287.34Z" fill="black"/>
<path d="M292.79 232.06C292.62 231.35 292.43 230.67 292.23 230.06C293.43 234.48 288.96 246.69 280.64 256.06C272.32 265.43 275.95 272.66 278.13 282.69C276.82 275.8 277.23 273.56 279.2 267.91C283.16 256.59 296.07 256.06 292.79 232.06Z" fill="#00B39D"/>
<path d="M321.73 214.45C316.28 211.31 312.73 213.26 308.23 217.95C304.967 221.56 301.23 224.712 297.12 227.32C296.5 223.17 295.66 219.22 295.53 217.26C295.27 213.5 295.44 209.54 297.94 206.63C300.44 203.72 301.5 202.01 304.5 199.79C305.607 199 306.635 198.106 307.57 197.12C308.46 196.12 310.15 193.77 309.34 192.39C307.783 193.622 305.835 194.254 303.85 194.17C303.042 194.08 302.272 193.776 301.62 193.29C301.567 193.261 301.521 193.22 301.488 193.169C301.455 193.118 301.435 193.06 301.43 193C301.43 192.85 301.6 192.77 301.74 192.72C302.239 192.575 302.747 192.465 303.26 192.39C304.815 192.142 306.289 191.528 307.56 190.6C308.454 189.897 309.11 188.937 309.44 187.85C309.69 186.97 309.49 186.85 309.44 185.97C309.381 185.267 309.22 184.576 308.96 183.92C308.22 182.15 306.68 181.68 305.03 180.92C301.28 179.09 299.98 181.12 294.62 181.68C290.62 182.1 281.33 177.53 274.15 182.06C266.33 186.99 265.82 195.06 264.33 203C264 204.761 263.529 206.494 262.92 208.18C260.59 213.39 257.99 214.43 254.67 225.18C249.76 240.94 250.93 249.54 242.34 261.48C234.61 272.25 232.55 280.48 232.53 286.35C232.53 296.35 234.29 299.03 242.43 306.05C248.31 311.11 251.11 311.97 256.85 320C258.71 322.59 258.85 332.83 257.47 337.44C256.09 342.05 254.86 344.35 256.24 347.97C257.62 351.59 264.13 366.69 266.5 370.37C268.87 374.05 271.5 373.11 279.38 370.74C287.12 368.43 283.44 363.56 280.67 363.87C278.312 364.207 275.975 364.678 273.67 365.28C273.67 365.28 268.01 351.97 268.02 348.7C268.03 345.43 274.75 331.83 280.08 324.65C285.41 317.47 283.36 306.05 280.08 291.53C276.8 277.01 276.64 275.53 279.27 268.01C281.77 260.87 287.83 258.01 291.14 250.87C295.25 249.07 299.14 247.32 300.67 245.19C303.79 240.87 310.25 230.09 312.94 226.45C316.57 221.53 319.08 218.68 322.94 220.06C326.47 221.33 326.94 220.46 326.94 220.46C327.34 218.47 324.91 216.29 321.73 214.45Z" fill="#00B39D"/>
<path opacity="0.4" d="M321.73 214.45C316.28 211.31 312.73 213.26 308.23 217.95C304.967 221.56 301.23 224.712 297.12 227.32C296.5 223.17 295.66 219.22 295.53 217.26C295.27 213.5 295.44 209.54 297.94 206.63C300.44 203.72 301.5 202.01 304.5 199.79C305.607 199 306.635 198.106 307.57 197.12C308.46 196.12 310.15 193.77 309.34 192.39C307.783 193.622 305.835 194.254 303.85 194.17C303.042 194.08 302.272 193.776 301.62 193.29C301.567 193.261 301.521 193.22 301.488 193.169C301.455 193.118 301.435 193.06 301.43 193C301.43 192.85 301.6 192.77 301.74 192.72C302.239 192.575 302.747 192.465 303.26 192.39C304.815 192.142 306.289 191.528 307.56 190.6C308.454 189.897 309.11 188.937 309.44 187.85C309.69 186.97 309.49 186.85 309.44 185.97C309.381 185.267 309.22 184.576 308.96 183.92C308.22 182.15 306.68 181.68 305.03 180.92C301.28 179.09 299.98 181.12 294.62 181.68C290.62 182.1 281.33 177.53 274.15 182.06C266.33 186.99 265.82 195.06 264.33 203C264 204.761 263.529 206.494 262.92 208.18C260.59 213.39 257.99 214.43 254.67 225.18C249.76 240.94 250.93 249.54 242.34 261.48C234.61 272.25 232.55 280.48 232.53 286.35C232.53 296.35 234.29 299.03 242.43 306.05C248.31 311.11 251.11 311.97 256.85 320C258.71 322.59 258.85 332.83 257.47 337.44C256.09 342.05 254.86 344.35 256.24 347.97C257.62 351.59 264.13 366.69 266.5 370.37C268.87 374.05 271.5 373.11 279.38 370.74C287.12 368.43 283.44 363.56 280.67 363.87C278.312 364.207 275.975 364.678 273.67 365.28C273.67 365.28 268.01 351.97 268.02 348.7C268.03 345.43 274.75 331.83 280.08 324.65C285.41 317.47 283.36 306.05 280.08 291.53C276.8 277.01 276.64 275.53 279.27 268.01C281.77 260.87 287.83 258.01 291.14 250.87C295.25 249.07 299.14 247.32 300.67 245.19C303.79 240.87 310.25 230.09 312.94 226.45C316.57 221.53 319.08 218.68 322.94 220.06C326.47 221.33 326.94 220.46 326.94 220.46C327.34 218.47 324.91 216.29 321.73 214.45Z" fill="black"/>
<path d="M279.2 267.91C277.2 273.56 276.82 275.8 278.13 282.69C276 273 272.53 266 279.88 257C282.3 254.57 286.81 252.67 291.07 250.81C287.76 257.92 281.7 260.78 279.2 267.91Z" fill="#FAFAFA"/>
<path d="M236.42 287.29C233.7 290.52 230.01 291.01 220.11 297.14C211.11 302.73 208.84 313.89 212.8 320.95C216.19 327.01 220 331.64 220.61 335.85C221.61 342.71 218.26 345.6 218.26 345.6C218.26 345.6 224.85 343.31 226.04 338.49C226.04 338.49 227.33 344.37 221.88 350.41C221.88 350.41 234.51 353.3 237.1 339.94C239.1 329.67 236.04 323.7 229.72 318.08C224.86 313.76 222.72 306.43 230 300.74C238.64 294.02 239.57 290.52 239.57 290.52C239.57 290.52 240.17 287.34 236.42 287.29Z" fill="#263238"/>
<path d="M308.24 190C309.822 190.025 311.34 190.634 312.5 191.71C313.3 192.49 315.86 197.19 314.35 198.81C312.84 200.43 309 199.33 308.25 195.81C308.25 195.81 302.51 196.5 300.6 194.22C298.69 191.94 301.4 190.94 303.96 190.61L308.24 190Z" fill="#F28F8F"/>
<path d="M309.34 192.39C309.34 192.39 307.11 194.29 307.6 195.76C308 195.76 308.25 195.76 308.25 195.76C308.439 196.721 308.913 197.602 309.61 198.29C310.344 198.906 311.282 199.224 312.24 199.18C314.24 199.01 313.24 197.39 312.68 195.52C312.12 193.65 310.39 192 309.34 192.39Z" fill="#874C4C"/>
<path d="M309.34 192.39C310.15 193.77 308.45 196.17 307.58 197.12C306.639 198.107 305.608 199.005 304.5 199.8C301.5 202 300.41 203.8 297.94 206.64C295.47 209.48 295.28 213.5 295.53 217.26C295.66 219.26 296.53 223.17 297.13 227.32C296.81 227.51 296.48 227.7 296.13 227.87C294.741 223.516 292.971 219.293 290.84 215.25C288.84 211.45 287.06 207.94 289.46 201.84C291.12 197.61 290.68 194.84 297.78 192.33C304.13 190.11 301.08 186.12 299.16 184.98C297.24 183.84 295.86 182.22 296.73 181.29C299.8 180.29 302.15 179.44 304.73 180.72C306.38 181.53 308.12 182.15 308.86 183.91C309.118 184.57 309.28 185.264 309.34 185.97C309.43 186.86 309.63 186.97 309.39 187.85C309.049 188.935 308.391 189.893 307.5 190.6C306.23 191.53 304.755 192.14 303.2 192.38C302.69 192.49 302.2 192.56 301.68 192.72C301.54 192.77 301.39 192.85 301.38 193C301.37 193.15 301.47 193.22 301.56 193.3C302.231 193.73 303.013 193.956 303.81 193.95C305.781 194.114 307.745 193.56 309.34 192.39Z" fill="#FAFAFA"/>
<path d="M304.06 182.08H304.01C303.81 181.856 303.589 181.652 303.35 181.47C302.998 181.33 302.633 181.227 302.26 181.16C301.99 181.07 301.65 180.8 301.72 180.46C301.72 180.27 301.92 180.18 302.09 180.09C302.627 179.72 303.238 179.471 303.88 179.36C304.663 179.332 305.44 179.501 306.14 179.85C308.14 180.75 309.03 181.3 309.46 181.98C309.89 182.66 309.18 184.98 309.18 184.98C309.177 184.628 309.08 184.283 308.9 183.98C308.38 182.78 306.76 182.81 305.68 182.7C305.092 182.651 304.53 182.436 304.06 182.08Z" fill="#263238"/>
<path opacity="0.1" d="M295.53 217.26C295.27 213.5 295.44 209.54 297.94 206.63C300.44 203.72 301.5 202.01 304.5 199.79C304.9 199.5 305.29 199.19 305.67 198.88C300.47 202.5 296.29 200.65 293.46 203.08C290.63 205.51 292.55 211.55 294.46 214.48C294.887 215.378 295.245 216.307 295.53 217.26Z" fill="black"/>
<path d="M282.76 192.54C283.95 190.88 289.28 186.98 291.66 186.03C294.04 185.08 298.3 190.65 298.29 195.21C298.28 199.77 295.12 208.59 291.61 208.35C288.1 208.11 284.55 195.06 282.91 196.6C281.27 198.14 280.59 195.55 282.76 192.54Z" fill="#37474F"/>
<path d="M234.58 433.13L316.85 385.63V316.54L234.58 364.04V433.13Z" fill="#00B39D"/>
<path opacity="0.6" d="M234.58 433.13L316.85 385.63V316.54L234.58 364.04V433.13Z" fill="white"/>
<path opacity="0.1" d="M234.58 364.04L249.48 394.21L316.85 355.4V316.54L234.58 364.04Z" fill="black"/>
<path d="M234.581 433.13L152.311 385.63V316.54L234.581 364.04V433.13Z" fill="#00B39D"/>
<path opacity="0.4" d="M234.581 433.13L152.311 385.63V316.54L234.581 364.04V433.13Z" fill="white"/>
<path opacity="0.1" d="M234.581 364.04L219.691 394.21L152.311 355.4V316.54L234.581 364.04Z" fill="black"/>
<path opacity="0.1" d="M157.92 370.4V378.46C157.996 379.845 158.398 381.193 159.093 382.394C159.788 383.594 160.757 384.614 161.92 385.37L180.12 395.88C182.33 397.15 184.12 396.12 184.12 393.58V385.51C184.043 384.126 183.64 382.78 182.945 381.581C182.25 380.383 181.282 379.364 180.12 378.61L161.92 368.1C159.71 366.83 157.92 367.86 157.92 370.4Z" fill="black"/>
<path d="M152.31 316.54L133.62 340.29L215.95 387.74L234.58 364.04L152.31 316.54Z" fill="#00B39D"/>
<path opacity="0.6" d="M152.31 316.54L133.62 340.29L215.95 387.74L234.58 364.04L152.31 316.54Z" fill="white"/>
<path d="M316.85 316.54L335.55 340.29L253.22 387.74L234.58 364.04L316.85 316.54Z" fill="#00B39D"/>
<path opacity="0.4" d="M316.85 316.54L335.55 340.29L253.22 387.74L234.58 364.04L316.85 316.54Z" fill="white"/>
<path d="M195.12 320.7C196.84 325.7 205 327.97 210.51 337.63C212.851 341.836 213.66 346.724 212.8 351.46L164.71 323.69L161.42 316.24L195.12 320.7Z" fill="#F0F0F0"/>
<path d="M146.55 332.38C146.64 330.09 148.02 327.02 149.81 324.49C152.693 320.563 156.764 317.67 161.42 316.24L172.57 323.24C160.66 322.84 156.57 329.11 155.46 332.61C154.7 335.02 154.06 336.89 152.65 336.89C152.29 336.917 151.933 336.807 151.649 336.583C151.366 336.359 151.177 336.037 151.12 335.68C150.938 335.891 150.696 336.044 150.427 336.12C150.158 336.195 149.872 336.189 149.606 336.102C149.34 336.016 149.106 335.853 148.932 335.633C148.758 335.414 148.653 335.148 148.63 334.87C148.385 334.996 148.106 335.039 147.834 334.99C147.563 334.941 147.316 334.804 147.13 334.6C146.883 334.291 146.704 333.934 146.604 333.551C146.504 333.169 146.486 332.77 146.55 332.38Z" fill="#F0F0F0"/>
<path d="M147.13 334.56C147.245 334.6 147.368 334.615 147.489 334.605C147.611 334.594 147.729 334.559 147.836 334.501C147.943 334.442 148.037 334.362 148.112 334.266C148.187 334.169 148.24 334.058 148.27 333.94C148.436 333.399 148.672 332.881 148.97 332.4C148.73 333.194 148.622 334.021 148.65 334.85C148.401 334.979 148.115 335.021 147.84 334.968C147.564 334.916 147.314 334.772 147.13 334.56Z" fill="#E0E0E0"/>
<path d="M149.48 336C149.778 335.97 150.057 335.845 150.277 335.643C150.497 335.441 150.646 335.173 150.7 334.88C150.791 334.345 151.019 333.842 151.36 333.42C151.156 334.138 151.075 334.885 151.12 335.63C150.911 335.842 150.645 335.989 150.355 336.055C150.064 336.12 149.761 336.101 149.48 336Z" fill="#E0E0E0"/>
<path d="M168 342.18C168.441 339.19 169.593 336.351 171.36 333.9C173.795 330.297 177.078 327.347 180.92 325.31V322.31C180.92 322.31 194.85 325.16 195.11 334.4C182.98 333.28 178.42 339.4 177.11 342.95C176.19 345.37 175.42 347.23 173.98 347.15C173.611 347.157 173.254 347.025 172.978 346.78C172.702 346.536 172.528 346.196 172.49 345.83C172.288 346.031 172.031 346.169 171.751 346.226C171.471 346.283 171.181 346.256 170.916 346.15C170.651 346.044 170.423 345.862 170.26 345.627C170.097 345.392 170.007 345.115 170 344.83C169.742 344.942 169.454 344.968 169.18 344.903C168.906 344.838 168.66 344.686 168.48 344.47C168.245 344.142 168.081 343.77 167.998 343.375C167.915 342.981 167.916 342.574 168 342.18Z" fill="#F0F0F0"/>
<path d="M168.47 344.45C168.586 344.497 168.71 344.52 168.835 344.517C168.96 344.514 169.083 344.486 169.197 344.433C169.31 344.381 169.412 344.305 169.495 344.212C169.578 344.118 169.641 344.009 169.68 343.89C169.88 343.345 170.149 342.827 170.48 342.35C170.184 343.147 170.026 343.989 170.01 344.84C169.746 344.954 169.452 344.978 169.173 344.907C168.895 344.837 168.647 344.676 168.47 344.45Z" fill="#E0E0E0"/>
<path d="M170.79 346.06C171.093 346.049 171.383 345.939 171.618 345.748C171.853 345.556 172.018 345.294 172.09 345C172.217 344.455 172.482 343.952 172.86 343.54C172.607 344.263 172.479 345.023 172.48 345.79C172.255 345.993 171.975 346.127 171.675 346.175C171.375 346.223 171.068 346.183 170.79 346.06Z" fill="#E0E0E0"/>
<path d="M161.441 316.24C160.721 316.48 159.991 316.76 159.271 317.07C163.12 320.924 167.809 323.837 172.971 325.58C178.211 327.34 186.031 328.37 192.971 325.86C194.431 325.328 195.749 324.465 196.821 323.34C196.208 322.681 195.705 321.928 195.331 321.11" fill="#E0E0E0"/>
<path d="M177.09 292.23C175.34 287.9 168.78 282.78 163.75 284.81C160.92 285.95 162.92 296.57 162.92 296.57C162.92 296.57 172.4 296.56 177.09 292.23Z" fill="#E0E0E0"/>
<path d="M172.871 294.74C169.659 295.89 166.281 296.508 162.871 296.57C162.871 296.57 160.871 285.95 163.701 284.81C165.611 284.38 170.401 286.9 172.871 294.74Z" fill="#FFA8A7"/>
<path d="M166.47 291.27C166.599 290.327 166.379 289.37 165.85 288.58C167.58 288.44 169.99 290.05 170.42 292.92C170.42 292.92 167.84 297.73 164.03 295.75C163.637 295.031 163.122 294.385 162.51 293.84C162.42 293.1 162.34 292.27 162.29 291.42C163.659 291.087 165.081 291.036 166.47 291.27Z" fill="#F28F8F"/>
<path d="M190 296.05C193.87 293.45 202.17 292.9 205.2 297.41C206.9 299.94 198.02 308.56 198.02 308.56C198.02 308.56 191.43 302.26 190 296.05Z" fill="#E0E0E0"/>
<path d="M192.061 300.5C194.871 304.61 198.011 308.56 198.011 308.56C198.011 308.56 206.891 299.94 205.191 297.41C203.891 296 198.521 295.4 192.061 300.5Z" fill="#FFA8A7"/>
<path d="M197.65 306.47C198.094 306.123 198.595 305.856 199.13 305.68C199.66 305.12 200.26 304.45 200.87 303.74C199.926 302.693 198.78 301.849 197.5 301.26C197.917 300.411 198.628 299.743 199.5 299.38C198.13 298.29 195.03 298.55 193.5 300.7C193.505 301.801 193.733 302.889 194.17 303.9C194.84 304.69 195.46 305.38 195.98 305.9C196.49 306.207 197.059 306.401 197.65 306.47Z" fill="#F28F8F"/>
<path d="M173.551 323.72C178.221 325.29 185.191 326.21 191.371 323.97C198.731 321.3 199.141 310.64 197.371 305.81C195.601 300.98 191.911 296.1 183.501 293.28C175.091 290.46 169.241 292.13 164.931 294.92C160.621 297.71 154.601 306.48 158.931 313.06C162.481 318.59 168.871 322.16 173.551 323.72Z" fill="#F5F5F5"/>
<path d="M173.59 322.61C164.26 319.48 164.76 313.7 167.12 311.32C169.48 308.94 173.38 308.32 177.84 309.78C182.3 311.24 185.03 314.16 185.5 317.49C185.97 320.82 182.91 325.74 173.59 322.61Z" fill="#E0E0E0"/>
<path d="M176.2 314.74L178.39 314.41C178.473 314.393 178.547 314.346 178.597 314.277C178.647 314.209 178.67 314.124 178.66 314.04C178.657 314 178.645 313.961 178.626 313.926C178.606 313.89 178.58 313.859 178.548 313.835C178.516 313.811 178.479 313.793 178.44 313.784C178.401 313.774 178.36 313.773 178.32 313.78L176.41 314.07L175 312.7C174.973 312.67 174.94 312.646 174.903 312.629C174.866 312.613 174.826 312.604 174.785 312.604C174.745 312.604 174.705 312.613 174.668 312.629C174.631 312.646 174.598 312.67 174.57 312.7C174.516 312.762 174.485 312.842 174.485 312.925C174.485 313.008 174.516 313.088 174.57 313.15L176.2 314.74Z" fill="#455A64"/>
<path d="M177.78 319.46C178.155 319.444 178.522 319.341 178.85 319.16C179.454 318.831 179.909 318.284 180.12 317.63C180.147 317.553 180.143 317.468 180.11 317.394C180.076 317.32 180.016 317.261 179.94 317.23C179.861 317.208 179.776 317.217 179.703 317.256C179.63 317.295 179.576 317.361 179.55 317.44C179.377 317.94 179.019 318.354 178.55 318.6C178.334 318.719 178.095 318.792 177.849 318.814C177.603 318.837 177.355 318.808 177.12 318.73C176.881 318.649 176.662 318.518 176.477 318.346C176.292 318.173 176.147 317.963 176.05 317.73C175.827 317.256 175.798 316.714 175.97 316.22L176.55 314.47C176.565 314.432 176.572 314.391 176.57 314.35C176.569 314.31 176.56 314.27 176.543 314.232C176.526 314.195 176.503 314.162 176.473 314.134C176.443 314.106 176.408 314.084 176.37 314.07C176.291 314.048 176.206 314.057 176.133 314.096C176.06 314.135 176.006 314.201 175.98 314.28L175.4 316.03C175.179 316.685 175.215 317.4 175.5 318.03C175.635 318.329 175.83 318.598 176.073 318.82C176.315 319.042 176.6 319.212 176.91 319.32C177.189 319.421 177.484 319.468 177.78 319.46Z" fill="#455A64"/>
<path d="M173.67 318.08C174.046 318.068 174.414 317.965 174.74 317.78C175.346 317.454 175.802 316.905 176.01 316.25L176.59 314.5C176.605 314.461 176.612 314.421 176.61 314.38C176.609 314.339 176.6 314.299 176.583 314.262C176.566 314.225 176.543 314.192 176.513 314.164C176.483 314.136 176.448 314.114 176.41 314.1C176.331 314.077 176.246 314.087 176.173 314.126C176.1 314.165 176.046 314.231 176.02 314.31L175.44 316.06C175.267 316.559 174.909 316.974 174.44 317.22C174.224 317.339 173.985 317.412 173.739 317.434C173.493 317.457 173.245 317.428 173.01 317.35C172.53 317.172 172.14 316.811 171.924 316.346C171.709 315.882 171.686 315.351 171.86 314.87C171.876 314.832 171.884 314.791 171.884 314.75C171.883 314.709 171.874 314.668 171.857 314.63C171.84 314.593 171.816 314.559 171.785 314.532C171.755 314.504 171.719 314.483 171.68 314.47C171.601 314.447 171.516 314.457 171.443 314.496C171.37 314.535 171.316 314.601 171.29 314.68C171.063 315.316 171.096 316.017 171.38 316.63C171.664 317.244 172.178 317.721 172.81 317.96C173.087 318.054 173.379 318.095 173.67 318.08Z" fill="#455A64"/>
<path d="M167.17 305C167.06 305.409 167.072 305.842 167.206 306.245C167.339 306.648 167.588 307.002 167.921 307.265C168.254 307.528 168.657 307.688 169.079 307.724C169.502 307.761 169.926 307.672 170.299 307.47C170.672 307.268 170.978 306.961 171.178 306.588C171.379 306.214 171.465 305.789 171.427 305.367C171.389 304.944 171.227 304.542 170.963 304.21C170.699 303.878 170.343 303.631 169.94 303.5C169.66 303.415 169.365 303.387 169.074 303.417C168.783 303.447 168.5 303.534 168.243 303.673C167.985 303.813 167.758 304.002 167.574 304.229C167.39 304.457 167.252 304.719 167.17 305Z" fill="#455A64"/>
<path d="M189.211 312.43C189.051 312.821 188.781 313.158 188.432 313.397C188.084 313.637 187.673 313.77 187.251 313.78C186.828 313.789 186.412 313.675 186.053 313.452C185.694 313.228 185.408 312.904 185.231 312.52C185.054 312.136 184.993 311.709 185.055 311.291C185.117 310.873 185.3 310.482 185.582 310.166C185.863 309.85 186.231 309.624 186.639 309.514C187.048 309.405 187.479 309.417 187.881 309.55C188.158 309.65 188.413 309.804 188.63 310.004C188.848 310.203 189.023 310.444 189.147 310.712C189.271 310.98 189.34 311.269 189.351 311.564C189.362 311.859 189.314 312.153 189.211 312.43Z" fill="#455A64"/>
<path d="M195.17 315.79C195.294 315.781 195.409 315.723 195.49 315.63C196.462 314.405 197.789 313.511 199.289 313.068C200.789 312.626 202.389 312.658 203.87 313.16C203.929 313.177 203.99 313.182 204.05 313.175C204.11 313.168 204.169 313.149 204.222 313.119C204.275 313.089 204.321 313.049 204.359 313.001C204.396 312.953 204.424 312.899 204.44 312.84C204.462 312.784 204.473 312.723 204.471 312.663C204.47 312.602 204.456 312.543 204.431 312.487C204.406 312.432 204.369 312.383 204.325 312.342C204.28 312.301 204.227 312.27 204.17 312.25C199.81 310.8 196.69 312.94 194.85 314.99C194.763 315.08 194.714 315.2 194.714 315.325C194.714 315.45 194.763 315.57 194.85 315.66C194.892 315.702 194.942 315.735 194.997 315.757C195.052 315.779 195.111 315.79 195.17 315.79Z" fill="#455A64"/>
<path d="M196.171 316.94C196.256 316.935 196.339 316.907 196.411 316.86C197.266 316.379 198.213 316.084 199.189 315.992C200.166 315.901 201.151 316.016 202.081 316.33C202.137 316.352 202.197 316.363 202.258 316.361C202.318 316.36 202.378 316.346 202.433 316.321C202.488 316.295 202.538 316.259 202.579 316.214C202.619 316.17 202.651 316.117 202.671 316.06C202.722 315.947 202.726 315.819 202.683 315.703C202.64 315.587 202.553 315.492 202.441 315.44C201.376 315.075 200.245 314.941 199.124 315.048C198.003 315.155 196.918 315.5 195.941 316.06C195.838 316.131 195.765 316.238 195.737 316.361C195.709 316.483 195.728 316.611 195.791 316.72C195.828 316.788 195.883 316.845 195.95 316.884C196.017 316.922 196.093 316.942 196.171 316.94Z" fill="#455A64"/>
<path d="M203.171 320.7C203.239 320.699 203.306 320.682 203.367 320.651C203.428 320.62 203.48 320.575 203.521 320.52C203.599 320.423 203.638 320.299 203.628 320.175C203.619 320.05 203.563 319.934 203.471 319.85C202.352 318.884 201.017 318.204 199.579 317.866C198.14 317.528 196.642 317.543 195.211 317.91C195.093 317.953 194.995 318.038 194.936 318.149C194.877 318.259 194.861 318.388 194.891 318.51C194.906 318.568 194.932 318.623 194.969 318.67C195.005 318.718 195.051 318.758 195.103 318.788C195.155 318.818 195.213 318.837 195.273 318.844C195.332 318.851 195.393 318.846 195.451 318.83C196.74 318.499 198.09 318.487 199.385 318.796C200.679 319.104 201.879 319.723 202.881 320.6C202.961 320.669 203.065 320.705 203.171 320.7Z" fill="#455A64"/>
<path d="M161.3 304.55C161.422 304.525 161.531 304.457 161.604 304.357C161.678 304.257 161.713 304.133 161.7 304.01C161.45 301.26 160.23 297.67 155.88 296.19C155.762 296.159 155.636 296.174 155.529 296.232C155.422 296.29 155.341 296.387 155.302 296.504C155.264 296.62 155.272 296.746 155.323 296.857C155.375 296.967 155.467 297.054 155.58 297.1C157.06 297.596 158.352 298.532 159.285 299.783C160.218 301.034 160.747 302.54 160.8 304.1C160.798 304.164 160.81 304.227 160.835 304.286C160.86 304.345 160.898 304.398 160.946 304.441C160.993 304.484 161.05 304.516 161.111 304.534C161.172 304.553 161.237 304.558 161.3 304.55Z" fill="#455A64"/>
<path d="M159.81 304.87H159.96C160.076 304.821 160.17 304.73 160.222 304.615C160.273 304.5 160.28 304.369 160.24 304.25C159.792 303.214 159.13 302.285 158.298 301.523C157.465 300.761 156.481 300.184 155.41 299.83C155.286 299.798 155.156 299.816 155.046 299.881C154.936 299.946 154.857 300.051 154.825 300.175C154.793 300.298 154.811 300.429 154.876 300.539C154.941 300.648 155.046 300.728 155.17 300.76C156.102 301.071 156.958 301.573 157.685 302.234C158.412 302.896 158.992 303.701 159.39 304.6C159.423 304.683 159.481 304.754 159.557 304.802C159.632 304.85 159.72 304.874 159.81 304.87Z" fill="#455A64"/>
<path d="M159.35 306.9C159.446 306.9 159.539 306.864 159.61 306.8C159.71 306.722 159.776 306.61 159.794 306.485C159.813 306.36 159.783 306.233 159.71 306.13C158.791 304.974 157.606 304.058 156.257 303.459C154.908 302.86 153.433 302.596 151.96 302.69C151.835 302.702 151.72 302.762 151.639 302.857C151.557 302.952 151.514 303.075 151.52 303.2C151.519 303.259 151.529 303.318 151.552 303.374C151.574 303.429 151.607 303.479 151.649 303.521C151.691 303.563 151.741 303.596 151.796 303.618C151.851 303.64 151.911 303.651 151.97 303.65C153.298 303.558 154.628 303.789 155.848 304.324C157.067 304.859 158.138 305.681 158.97 306.72C159.013 306.78 159.07 306.828 159.137 306.859C159.203 306.891 159.277 306.905 159.35 306.9Z" fill="#455A64"/>
<path d="M170.81 292.57C170.4 290.69 168.62 288.38 166.88 288.38C167.344 289.21 167.49 290.18 167.29 291.11C167.29 291.11 162.85 289.94 161.29 292.01C162.062 292.263 162.758 292.706 163.314 293.298C163.869 293.891 164.267 294.613 164.47 295.4C168.06 297.66 170.81 292.57 170.81 292.57Z" fill="#F5F5F5"/>
<path d="M194 300.69C195.5 299.47 198 299.17 199.38 300.26C198.508 300.623 197.797 301.291 197.38 302.14C197.38 302.14 201.58 304 201.55 306.62C200.858 306.368 200.11 306.308 199.386 306.447C198.663 306.586 197.99 306.919 197.44 307.41C193.16 306.9 194 300.69 194 300.69Z" fill="#F5F5F5"/>
<path d="M249.24 335.85C249.216 336.03 249.157 336.203 249.065 336.36C248.974 336.517 248.853 336.654 248.708 336.764C248.564 336.874 248.399 336.955 248.224 337.001C248.048 337.048 247.865 337.059 247.685 337.035C247.505 337.01 247.332 336.951 247.175 336.86C247.018 336.768 246.881 336.647 246.771 336.503C246.661 336.358 246.58 336.194 246.534 336.018C246.487 335.843 246.476 335.66 246.5 335.48C247.02 331.55 245.56 328.59 242.5 327.38C240.8 326.772 238.947 326.741 237.228 327.292C235.509 327.844 234.02 328.946 232.99 330.43C231.28 332.8 231.43 335.55 231.6 338.74C231.82 342.74 232.06 347.26 228.42 351.66C226.383 353.897 223.686 355.428 220.72 356.03L216.9 353.83C220.39 353.6 224.26 352.36 226.29 349.9C229.29 346.33 229.05 342.71 228.84 338.9C228.66 335.5 228.47 331.99 230.74 328.83C232.133 326.849 234.141 325.384 236.452 324.661C238.762 323.938 241.247 323.997 243.52 324.83C246.82 326.12 250.05 329.71 249.24 335.85Z" fill="#F0F0F0"/>
<path d="M248.56 406.67C248.979 406.1 249.493 405.606 250.08 405.21C250.419 404.97 250.803 404.803 251.21 404.72C251.344 404.685 251.486 404.701 251.608 404.766C251.731 404.831 251.824 404.939 251.87 405.07C252.05 405.55 252.24 406.07 252.45 406.76C252.66 407.45 252.86 408.07 253.07 408.76C253.28 409.45 253.49 410.14 253.69 410.82C253.89 411.5 254.06 412.11 254.21 412.63C254.101 412.876 253.952 413.102 253.77 413.3C253.558 413.534 253.315 413.739 253.05 413.91C252.893 414.021 252.721 414.108 252.54 414.17C252.426 414.208 252.303 414.208 252.19 414.17C252.111 414.134 252.045 414.075 252 414C251.93 413.873 251.873 413.739 251.83 413.6L251.56 412.6L249.26 414.09C249.2 414.46 249.15 414.85 249.1 415.24C249.05 415.63 248.99 416.03 248.93 416.4C248.814 416.534 248.691 416.661 248.56 416.78C248.418 416.921 248.26 417.045 248.09 417.15C247.953 417.268 247.794 417.358 247.623 417.415C247.451 417.472 247.27 417.494 247.09 417.48C246.87 417.42 246.76 417.22 246.75 416.88C246.731 416.714 246.731 416.546 246.75 416.38C246.75 416.2 246.81 416 246.84 415.76C246.87 415.52 246.96 415 247.05 414.49C247.14 413.98 247.23 413.43 247.34 412.83L247.68 410.99C247.81 410.36 247.92 409.76 248.03 409.2C248.14 408.64 248.24 408.13 248.33 407.69C248.42 407.25 248.51 406.9 248.56 406.67ZM250.17 407.82C250.07 408.36 249.96 408.96 249.83 409.63C249.7 410.3 249.6 410.95 249.5 411.63L251.07 410.63C250.93 410.11 250.79 409.63 250.64 409.11C250.49 408.59 250.36 408.19 250.25 407.8L250.17 407.82Z" fill="#455A64"/>
<path d="M258.2 410.7L257.7 411C257.513 411.112 257.319 411.212 257.12 411.3C256.925 411.4 256.725 411.49 256.52 411.57C256.339 411.639 256.152 411.69 255.96 411.72C255.49 411.79 255.24 411.53 255.22 410.96L254.91 403.23C254.895 403.012 254.94 402.794 255.04 402.6C255.142 402.394 255.27 402.203 255.42 402.03C255.774 401.664 256.158 401.329 256.57 401.03C256.919 400.75 257.283 400.49 257.66 400.25C258.213 399.87 258.825 399.583 259.47 399.4C259.938 399.256 260.442 399.285 260.89 399.48C261.347 399.697 261.704 400.08 261.89 400.55C262.16 401.231 262.299 401.957 262.3 402.69C262.333 403.532 262.263 404.375 262.09 405.2C261.915 405.968 261.643 406.711 261.28 407.41C260.926 408.09 260.486 408.722 259.97 409.29C259.44 409.83 258.845 410.304 258.2 410.7ZM257.39 408.7L257.74 408.53C257.871 408.465 257.998 408.391 258.12 408.31C258.722 407.919 259.204 407.369 259.51 406.72C259.688 406.349 259.813 405.955 259.88 405.55C259.967 405.082 259.998 404.605 259.97 404.13C259.97 403.13 259.73 402.5 259.35 402.23C258.97 401.96 258.49 402.01 257.9 402.39L257.54 402.64C257.42 402.73 257.29 402.83 257.17 402.94L257.39 408.7Z" fill="#455A64"/>
<path d="M269.791 398.81C269.821 399.481 269.764 400.154 269.621 400.81C269.485 401.426 269.277 402.023 269.001 402.59C268.735 403.135 268.399 403.643 268.001 404.1C267.603 404.544 267.149 404.934 266.651 405.26C266.239 405.545 265.772 405.743 265.281 405.84C264.911 405.907 264.529 405.844 264.201 405.66C263.865 405.443 263.609 405.124 263.471 404.75C263.269 404.23 263.164 403.678 263.161 403.12C263.132 402.472 263.189 401.823 263.331 401.19C263.467 400.57 263.678 399.969 263.961 399.4C264.227 398.849 264.563 398.335 264.961 397.87C265.352 397.417 265.807 397.023 266.311 396.7C266.717 396.407 267.186 396.212 267.681 396.13C268.051 396.063 268.432 396.127 268.761 396.31C269.098 396.524 269.355 396.844 269.491 397.22C269.686 397.728 269.787 398.266 269.791 398.81ZM265.351 401.68C265.313 402.161 265.44 402.641 265.711 403.04C265.921 403.27 266.201 403.27 266.561 403.04C266.94 402.78 267.222 402.399 267.361 401.96C267.543 401.406 267.618 400.822 267.581 400.24C267.614 399.764 267.491 399.29 267.231 398.89C267.021 398.66 266.741 398.66 266.381 398.89C266.006 399.152 265.726 399.527 265.581 399.96C265.39 400.512 265.312 401.097 265.351 401.68Z" fill="#455A64"/>
<path d="M273.391 400.54C273.301 400.64 273.15 400.76 272.96 400.93C272.77 401.1 272.56 401.23 272.37 401.36C272.204 401.463 272.031 401.554 271.85 401.63C271.727 401.672 271.594 401.672 271.47 401.63C271.412 401.605 271.36 401.568 271.317 401.522C271.274 401.475 271.241 401.42 271.22 401.36C271.156 401.149 271.122 400.93 271.12 400.71L270.81 392.92C270.795 392.699 270.84 392.478 270.94 392.28C271.043 392.078 271.17 391.89 271.32 391.72C271.629 391.384 271.963 391.073 272.32 390.79C272.671 390.498 273.038 390.228 273.421 389.98C274.591 389.23 275.501 388.98 276.141 389.23C276.781 389.48 277.141 390.16 277.141 391.28C277.168 391.813 277.124 392.348 277.01 392.87C276.889 393.392 276.708 393.899 276.47 394.38C276.195 394.873 275.859 395.33 275.47 395.74C275.065 396.174 274.609 396.557 274.11 396.88L273.21 397.46L273.391 400.54ZM273.84 394.8C274.18 394.593 274.46 394.299 274.65 393.95C274.835 393.589 274.918 393.185 274.891 392.78C274.891 392.36 274.78 392.1 274.56 392C274.35 391.91 274.061 392 273.671 392.23L273.34 392.45L273.07 392.67L273.171 395.24L273.84 394.8Z" fill="#455A64"/>
<path d="M280.43 393.23C280.43 393.51 280.52 393.67 280.67 393.7C280.885 393.711 281.097 393.64 281.26 393.5C281.399 393.411 281.532 393.314 281.66 393.21C281.79 393.09 281.91 392.98 282.01 392.87C282.096 392.95 282.167 393.045 282.22 393.15C282.293 393.299 282.327 393.464 282.32 393.63C282.333 394.072 282.222 394.508 282 394.89C281.688 395.397 281.255 395.82 280.74 396.12C280 396.6 279.41 396.75 279 396.57C278.59 396.39 278.35 395.8 278.31 394.8L278.03 387.72C278.154 387.59 278.284 387.466 278.42 387.35C278.594 387.201 278.778 387.064 278.97 386.94C279.219 386.738 279.53 386.628 279.85 386.63C280.07 386.63 280.19 386.96 280.21 387.51V388.57L281.87 387.5C281.939 387.614 281.996 387.735 282.04 387.86C282.095 388.042 282.126 388.23 282.13 388.42C282.164 388.761 282.109 389.106 281.97 389.42C281.856 389.664 281.676 389.872 281.45 390.02L280.29 390.77L280.43 393.23Z" fill="#455A64"/>
<path d="M291.39 386.45C291.155 386.885 290.81 387.25 290.39 387.51C290.163 387.675 289.904 387.791 289.63 387.85C289.541 387.868 289.449 387.851 289.372 387.803C289.296 387.754 289.241 387.678 289.22 387.59C288.95 386.77 288.72 386.11 288.54 385.59C288.36 385.07 288.23 384.64 288.13 384.24H288.06C288.06 384.91 288.06 385.51 288.06 386.06C288.06 386.61 288.06 387.13 288.06 387.64C288.06 388.15 288.06 388.64 288.06 389.19C288.06 389.74 288.06 390.31 288.06 390.95C287.929 391.102 287.785 391.243 287.63 391.37C287.463 391.516 287.286 391.65 287.1 391.77C286.848 391.968 286.54 392.084 286.22 392.1C286.01 392.1 285.89 391.87 285.88 391.46V382.78C285.987 382.511 286.132 382.259 286.31 382.03C286.565 381.679 286.888 381.383 287.26 381.16C287.569 380.922 287.941 380.779 288.33 380.75C288.469 380.768 288.6 380.827 288.705 380.919C288.81 381.012 288.885 381.134 288.92 381.27C289.01 381.49 289.1 381.74 289.21 382.02C289.32 382.3 289.41 382.6 289.51 382.91C289.61 383.22 289.72 383.52 289.82 383.83C289.92 384.14 290 384.41 290.08 384.65H290.15C290.31 383.59 290.48 382.56 290.65 381.56C290.82 380.56 290.98 379.72 291.12 379.02C291.268 378.83 291.428 378.649 291.6 378.48C291.809 378.289 292.033 378.115 292.27 377.96C292.564 377.743 292.908 377.602 293.27 377.55C293.328 377.543 293.386 377.548 293.442 377.564C293.498 377.579 293.551 377.606 293.596 377.643C293.642 377.679 293.68 377.724 293.708 377.775C293.736 377.826 293.754 377.882 293.76 377.94C293.76 378.14 293.85 378.45 293.91 378.94C293.97 379.43 294.02 379.86 294.09 380.41C294.16 380.96 294.22 381.53 294.29 382.15C294.36 382.77 294.42 383.35 294.48 383.92C294.54 384.49 294.59 385 294.64 385.48C294.69 385.96 294.72 386.32 294.73 386.58C294.602 386.771 294.454 386.949 294.29 387.11C294.107 387.284 293.906 387.438 293.69 387.57C293.452 387.75 293.167 387.857 292.87 387.88C292.64 387.88 292.52 387.68 292.48 387.27C292.38 386.1 292.31 385.04 292.26 384.08C292.21 383.12 292.16 382.34 292.11 381.7H292.04C291.98 382.19 291.87 382.81 291.74 383.57C291.61 384.33 291.58 385.29 291.39 386.45Z" fill="#455A64"/>
<path d="M299.351 384.11C298.927 384.405 298.452 384.619 297.951 384.74C297.567 384.837 297.162 384.802 296.801 384.64C296.435 384.446 296.149 384.132 295.991 383.75C295.762 383.191 295.643 382.594 295.641 381.99C295.613 381.301 295.681 380.611 295.841 379.94C295.995 379.329 296.22 378.739 296.511 378.18C296.781 377.671 297.117 377.2 297.511 376.78C297.852 376.398 298.242 376.061 298.671 375.78C299.041 375.525 299.459 375.348 299.901 375.26C300.237 375.192 300.587 375.23 300.901 375.37C301.197 375.525 301.433 375.775 301.571 376.08C301.749 376.476 301.845 376.905 301.851 377.34C301.863 377.685 301.791 378.029 301.641 378.34C301.48 378.653 301.255 378.929 300.981 379.15L297.871 381.79C297.901 381.924 297.978 382.043 298.088 382.125C298.198 382.207 298.334 382.248 298.471 382.24C298.832 382.219 299.179 382.094 299.471 381.88C299.833 381.648 300.168 381.376 300.471 381.07C300.743 380.792 300.991 380.491 301.211 380.17C301.358 380.204 301.487 380.294 301.571 380.42C301.68 380.575 301.739 380.76 301.741 380.95C301.748 381.478 301.575 381.993 301.251 382.41C300.989 382.776 300.687 383.111 300.351 383.41C300.035 383.667 299.701 383.901 299.351 384.11ZM298.741 377.84C298.541 377.965 298.365 378.124 298.221 378.31C298.077 378.482 297.959 378.674 297.871 378.88C297.786 379.074 297.719 379.274 297.671 379.48C297.637 379.672 297.617 379.865 297.611 380.06L299.771 378.19C299.753 378.093 299.717 378.001 299.664 377.919C299.611 377.836 299.542 377.765 299.461 377.71C299.291 377.59 299.051 377.64 298.741 377.84Z" fill="#455A64"/>
<path d="M305.07 373.44C305.057 372.967 305.157 372.497 305.36 372.07C305.546 371.642 305.851 371.278 306.24 371.02C306.62 370.77 306.93 370.73 307.16 370.9C307.3 371.023 307.408 371.178 307.475 371.353C307.541 371.527 307.563 371.715 307.54 371.9C307.556 372.374 307.456 372.844 307.25 373.27C307.061 373.682 306.755 374.03 306.37 374.27C305.99 374.52 305.68 374.56 305.45 374.39C305.318 374.272 305.215 374.125 305.149 373.96C305.083 373.795 305.056 373.617 305.07 373.44ZM305.28 378.64C305.266 378.165 305.361 377.692 305.56 377.26C305.756 376.849 306.065 376.502 306.45 376.26C306.83 376.01 307.14 375.97 307.37 376.14C307.5 376.257 307.602 376.403 307.666 376.566C307.73 376.73 307.756 376.905 307.74 377.08C307.761 377.556 307.665 378.03 307.46 378.46C307.268 378.87 306.963 379.217 306.58 379.46C306.19 379.71 305.89 379.75 305.66 379.58C305.529 379.463 305.426 379.318 305.36 379.155C305.294 378.992 305.267 378.815 305.28 378.64Z" fill="#455A64"/>
<path d="M311.88 372C311.932 373.068 311.895 374.138 311.77 375.2C311.666 376.076 311.492 376.942 311.25 377.79C311.114 378.264 310.93 378.723 310.7 379.16C310.508 379.561 310.215 379.906 309.85 380.16C309.763 380.227 309.663 380.274 309.556 380.298C309.449 380.322 309.338 380.323 309.23 380.3C309.063 380.261 308.912 380.17 308.8 380.04C308.99 379.51 309.15 378.98 309.29 378.45C309.43 377.92 309.54 377.39 309.63 376.85C309.722 376.294 309.782 375.733 309.81 375.17C309.841 374.564 309.841 373.956 309.81 373.35C309.788 372.774 309.735 372.2 309.65 371.63C309.59 371.166 309.489 370.707 309.35 370.26C309.241 369.881 309.09 369.516 308.9 369.17C308.739 368.854 308.544 368.555 308.32 368.28C308.416 368.003 308.543 367.738 308.7 367.49C308.85 367.235 309.055 367.016 309.3 366.85C309.42 366.744 309.566 366.674 309.724 366.647C309.881 366.621 310.043 366.639 310.19 366.7C310.449 366.846 310.666 367.056 310.82 367.31C311.14 367.875 311.373 368.485 311.51 369.12C311.73 370.065 311.854 371.03 311.88 372Z" fill="#455A64"/>
<path d="M81.7197 113.89C81.2271 112.6 80.2815 111.533 79.0597 110.89C78.3493 110.52 77.569 110.304 76.7695 110.255C75.97 110.207 75.1693 110.328 74.4197 110.61C71.7097 111.61 70.5797 115.43 71.2297 118.17C69.8997 115.68 66.5497 113.55 63.8497 114.57C63.0984 114.85 62.415 115.287 61.8445 115.85C61.274 116.414 60.8293 117.092 60.5397 117.84C60.0519 119.129 60.0519 120.551 60.5397 121.84C62.1197 126.05 66.8896 126.91 71.1996 128.45L75.7297 130.05L77.9997 125.87C80.2697 121.89 83.2997 118.1 81.7197 113.89Z" fill="#00B39D"/>
<path d="M315.31 145.12C314.814 143.832 313.869 142.767 312.65 142.12C311.941 141.746 311.161 141.527 310.361 141.477C309.561 141.427 308.759 141.547 308.01 141.83C305.3 142.83 304.17 146.65 304.82 149.39C303.5 146.9 300.14 144.77 297.44 145.79C296.689 146.061 296.003 146.486 295.428 147.039C294.852 147.592 294.4 148.261 294.1 149C293.619 150.29 293.619 151.71 294.1 153C295.68 157.2 300.46 158.07 304.76 159.6L309.29 161.2L311.66 157.02C313.86 153.12 316.89 149.33 315.31 145.12Z" fill="#00B39D"/>
<path d="M204.18 119.67C204.775 118.422 204.892 116.999 204.51 115.67C204.286 114.908 203.903 114.201 203.386 113.598C202.869 112.994 202.229 112.508 201.51 112.17C198.93 110.94 195.45 112.74 193.94 115.08C194.81 112.43 194.03 108.59 191.45 107.36C190.736 107.017 189.958 106.83 189.167 106.811C188.375 106.792 187.589 106.942 186.86 107.25C185.604 107.789 184.587 108.766 184 110C182.08 114 184.74 118 186.59 122.11L188.59 126.43L193.18 125.24C197.49 124.11 202.26 123.68 204.18 119.67Z" fill="#00B39D"/>
<path d="M440.6 122.45C441.205 121.204 441.322 119.778 440.93 118.45C440.706 117.687 440.324 116.98 439.806 116.377C439.289 115.774 438.649 115.287 437.93 114.95C435.36 113.72 431.88 115.52 430.36 117.86C431.23 115.22 430.45 111.37 427.87 110.14C427.155 109.8 426.377 109.614 425.586 109.595C424.795 109.576 424.009 109.724 423.28 110.03C422.013 110.564 420.986 111.542 420.39 112.78C418.48 116.78 421.14 120.78 422.99 124.89L424.99 129.21L429.59 128.02C433.92 126.89 438.69 126.46 440.6 122.45Z" fill="#00B39D"/>
</svg>
