<svg width="500" height="500" viewBox="0 0 500 500" fill="none" xmlns="http://www.w3.org/2000/svg">
<path d="M500 382.4H0V382.65H500V382.4Z" fill="#EBEBEB"/>
<path d="M173.22 388.78H150.04V389.03H173.22V388.78Z" fill="#EBEBEB"/>
<path d="M458.77 394.14H402.1V394.39H458.77V394.14Z" fill="#EBEBEB"/>
<path d="M99.3897 394.14H42.7197V394.39H99.3897V394.14Z" fill="#EBEBEB"/>
<path d="M237 337.8H43.91C42.3973 337.797 40.9475 337.195 39.8788 336.124C38.8102 335.053 38.21 333.603 38.21 332.09V60.66C38.2231 59.156 38.8292 57.718 39.8964 56.6582C40.9637 55.5985 42.4059 55.0026 43.91 55H237C238.514 55 239.967 55.6016 241.038 56.6724C242.108 57.7433 242.71 59.1956 242.71 60.71V332.09C242.71 333.604 242.108 335.057 241.038 336.128C239.967 337.198 238.514 337.8 237 337.8ZM43.91 55.2C42.4636 55.2026 41.0774 55.7791 40.0556 56.8027C39.0338 57.8264 38.46 59.2136 38.46 60.66V332.09C38.46 333.536 39.0338 334.924 40.0556 335.947C41.0774 336.971 42.4636 337.547 43.91 337.55H237C238.446 337.545 239.832 336.968 240.855 335.945C241.878 334.922 242.455 333.536 242.46 332.09V60.66C242.455 59.2135 241.878 57.8278 240.855 56.805C239.832 55.7822 238.446 55.2053 237 55.2H43.91Z" fill="#EBEBEB"/>
<path d="M453.31 337.8H260.21C258.697 337.795 257.248 337.191 256.178 336.122C255.109 335.052 254.505 333.603 254.5 332.09V60.66C254.516 59.1551 255.124 57.7171 256.193 56.6576C257.262 55.5981 258.705 55.0025 260.21 55H453.31C454.812 55.0052 456.252 55.6022 457.317 56.6617C458.382 57.7212 458.987 59.1578 459 60.66V332.09C459.001 332.839 458.855 333.58 458.57 334.272C458.285 334.964 457.866 335.593 457.338 336.123C456.809 336.654 456.182 337.075 455.491 337.362C454.799 337.65 454.059 337.799 453.31 337.8ZM260.21 55.2C258.764 55.2053 257.378 55.7822 256.355 56.805C255.332 57.8278 254.755 59.2135 254.75 60.66V332.09C254.755 333.536 255.332 334.922 256.355 335.945C257.378 336.968 258.764 337.545 260.21 337.55H453.31C454.756 337.545 456.142 336.968 457.165 335.945C458.188 334.922 458.765 333.536 458.77 332.09V60.66C458.765 59.2135 458.188 57.8278 457.165 56.805C456.142 55.7822 454.756 55.2053 453.31 55.2H260.21Z" fill="#EBEBEB"/>
<path d="M315.07 303.03H291.98V382.94H315.07V303.03Z" fill="#E6E6E6"/>
<path d="M298.72 303.03H275.63V382.94H298.72V303.03Z" fill="#E6E6E6"/>
<path d="M294.34 382.94H298.72V370.46H289.73L294.34 382.94Z" fill="#F0F0F0"/>
<path d="M182.65 303.03H159.56V382.94H182.65V303.03Z" fill="#E6E6E6"/>
<path d="M298.73 303.03H178.83V376.8H298.73V303.03Z" fill="#F0F0F0"/>
<path d="M291.26 360.2H244.26C243.05 360.195 241.891 359.712 241.035 358.856C240.179 358 239.696 356.841 239.69 355.63V310.72C239.693 309.51 240.176 308.35 241.032 307.495C241.889 306.64 243.05 306.16 244.26 306.16H291.21C292.421 306.16 293.582 306.64 294.438 307.495C295.295 308.35 295.778 309.51 295.78 310.72V355.63C295.775 356.832 295.299 357.984 294.454 358.838C293.609 359.693 292.462 360.182 291.26 360.2ZM244.26 307.2C243.32 307.2 242.417 307.572 241.75 308.236C241.083 308.899 240.706 309.799 240.7 310.74V355.65C240.695 356.118 240.782 356.582 240.956 357.016C241.13 357.45 241.388 357.845 241.715 358.179C242.042 358.514 242.431 358.78 242.861 358.964C243.291 359.148 243.753 359.245 244.22 359.25H291.22C292.163 359.255 293.069 358.887 293.74 358.225C294.411 357.563 294.792 356.663 294.8 355.72V310.72C294.8 310.254 294.709 309.793 294.53 309.363C294.351 308.933 294.09 308.542 293.76 308.213C293.43 307.885 293.039 307.624 292.608 307.447C292.178 307.269 291.716 307.179 291.25 307.18L244.26 307.2Z" fill="#E0E0E0"/>
<path d="M233.24 360.2H186.24C185.03 360.195 183.87 359.712 183.014 358.856C182.158 358 181.675 356.841 181.67 355.63V310.72C181.673 309.51 182.155 308.35 183.012 307.495C183.869 306.64 185.03 306.16 186.24 306.16H233.24C234.45 306.16 235.611 306.64 236.468 307.495C237.325 308.35 237.807 309.51 237.81 310.72V355.63C237.807 356.841 237.325 358.002 236.468 358.859C235.612 359.715 234.451 360.198 233.24 360.2ZM186.24 307.2C185.774 307.199 185.313 307.289 184.882 307.467C184.452 307.644 184.06 307.905 183.73 308.233C183.401 308.562 183.139 308.953 182.96 309.383C182.782 309.813 182.69 310.274 182.69 310.74V355.65C182.69 356.116 182.782 356.578 182.96 357.009C183.139 357.439 183.4 357.831 183.73 358.16C184.059 358.49 184.451 358.752 184.881 358.93C185.312 359.108 185.774 359.2 186.24 359.2H233.24C234.182 359.198 235.084 358.823 235.751 358.158C236.418 357.493 236.795 356.592 236.8 355.65V310.72C236.795 309.779 236.417 308.879 235.75 308.216C235.083 307.552 234.181 307.18 233.24 307.18L186.24 307.2Z" fill="#E0E0E0"/>
<path d="M228.88 320.35C228.008 320.35 227.156 320.091 226.431 319.607C225.706 319.123 225.14 318.435 224.806 317.63C224.472 316.824 224.384 315.938 224.554 315.083C224.723 314.228 225.142 313.442 225.758 312.825C226.374 312.208 227.158 311.787 228.013 311.616C228.868 311.444 229.754 311.53 230.56 311.863C231.366 312.195 232.056 312.759 232.542 313.482C233.027 314.206 233.288 315.058 233.29 315.93C233.29 317.1 232.825 318.223 231.999 319.052C231.172 319.88 230.05 320.347 228.88 320.35Z" fill="#FAFAFA"/>
<path d="M248.66 320.35C247.787 320.356 246.933 320.103 246.205 319.624C245.476 319.144 244.906 318.459 244.567 317.656C244.228 316.852 244.134 315.966 244.299 315.109C244.463 314.253 244.878 313.464 245.49 312.843C246.103 312.222 246.886 311.797 247.74 311.621C248.594 311.445 249.481 311.526 250.29 311.855C251.098 312.183 251.79 312.743 252.28 313.465C252.769 314.187 253.034 315.038 253.04 315.91V316C253.027 317.155 252.56 318.258 251.74 319.072C250.921 319.886 249.815 320.345 248.66 320.35Z" fill="#FAFAFA"/>
<path d="M183.21 382.94H178.82V370.46H187.81L183.21 382.94Z" fill="#F0F0F0"/>
<path d="M175.3 303.03H152.21V382.94H175.3V303.03Z" fill="#E6E6E6"/>
<path d="M170.91 382.94H175.3V370.46H166.31L170.91 382.94Z" fill="#F0F0F0"/>
<path d="M175.3 303.03H55.4004V376.8H175.3V303.03Z" fill="#F0F0F0"/>
<path d="M167.83 360.2H120.83C119.618 360.2 118.455 359.719 117.598 358.862C116.741 358.005 116.26 356.842 116.26 355.63V310.72C116.262 309.51 116.745 308.35 117.602 307.495C118.459 306.64 119.619 306.16 120.83 306.16H167.78C168.99 306.16 170.151 306.64 171.008 307.495C171.864 308.35 172.347 309.51 172.35 310.72V355.63C172.35 356.834 171.875 357.988 171.029 358.844C170.183 359.7 169.033 360.187 167.83 360.2ZM120.83 307.2C120.364 307.199 119.903 307.289 119.472 307.467C119.041 307.644 118.65 307.905 118.32 308.233C117.99 308.562 117.729 308.953 117.55 309.383C117.372 309.813 117.28 310.274 117.28 310.74V355.65C117.274 356.118 117.361 356.582 117.535 357.016C117.709 357.45 117.967 357.845 118.294 358.179C118.621 358.514 119.01 358.78 119.44 358.964C119.87 359.148 120.332 359.245 120.8 359.25H167.8C168.743 359.255 169.65 358.887 170.323 358.226C170.996 357.564 171.379 356.664 171.39 355.72V310.72C171.384 309.781 171.008 308.882 170.344 308.219C169.679 307.556 168.779 307.183 167.84 307.18L120.83 307.2Z" fill="#E0E0E0"/>
<path d="M109.81 360.2H62.8698C61.6578 360.2 60.4954 359.719 59.6383 358.862C58.7813 358.005 58.2998 356.842 58.2998 355.63V310.72C58.2998 310.12 58.4181 309.527 58.6479 308.973C58.8777 308.419 59.2144 307.916 59.6389 307.492C60.0634 307.069 60.5673 306.733 61.1217 306.504C61.6761 306.276 62.2701 306.159 62.8698 306.16H109.81C110.409 306.159 111.004 306.276 111.558 306.504C112.112 306.733 112.616 307.069 113.041 307.492C113.465 307.916 113.802 308.419 114.032 308.973C114.262 309.527 114.38 310.12 114.38 310.72V355.63C114.377 356.841 113.895 358.002 113.038 358.859C112.182 359.715 111.021 360.198 109.81 360.2ZM62.8698 307.2C62.4032 307.198 61.9408 307.287 61.509 307.464C61.0772 307.641 60.6846 307.901 60.3537 308.23C60.0229 308.559 59.7603 308.95 59.5812 309.381C59.402 309.812 59.3098 310.274 59.3098 310.74V355.65C59.3045 356.118 59.3914 356.582 59.5654 357.016C59.7395 357.45 59.9973 357.845 60.3242 358.179C60.651 358.514 61.0405 358.78 61.4705 358.964C61.9004 359.148 62.3623 359.245 62.8298 359.25H109.83C110.297 359.251 110.76 359.161 111.191 358.983C111.623 358.805 112.016 358.544 112.347 358.214C112.677 357.884 112.94 357.492 113.119 357.061C113.298 356.63 113.39 356.167 113.39 355.7V310.7C113.39 310.234 113.298 309.772 113.118 309.341C112.939 308.91 112.677 308.519 112.346 308.19C112.015 307.861 111.622 307.601 111.191 307.424C110.759 307.247 110.296 307.158 109.83 307.16L62.8698 307.2Z" fill="#E0E0E0"/>
<path d="M105.46 320.35C104.588 320.352 103.735 320.095 103.008 319.612C102.282 319.129 101.715 318.442 101.38 317.637C101.044 316.832 100.955 315.945 101.123 315.089C101.291 314.233 101.709 313.447 102.325 312.829C102.94 312.21 103.725 311.789 104.58 311.616C105.435 311.444 106.322 311.53 107.128 311.862C107.935 312.194 108.625 312.757 109.111 313.481C109.597 314.206 109.858 315.058 109.86 315.93C109.863 316.509 109.751 317.084 109.531 317.62C109.311 318.156 108.987 318.643 108.578 319.054C108.17 319.465 107.684 319.791 107.148 320.013C106.613 320.235 106.04 320.35 105.46 320.35Z" fill="#FAFAFA"/>
<path d="M125.24 320.35C124.368 320.356 123.513 320.103 122.785 319.624C122.056 319.144 121.486 318.459 121.147 317.656C120.808 316.852 120.714 315.966 120.879 315.109C121.043 314.253 121.458 313.464 122.07 312.843C122.683 312.222 123.466 311.797 124.32 311.621C125.174 311.445 126.062 311.526 126.87 311.855C127.678 312.183 128.37 312.743 128.86 313.465C129.349 314.187 129.614 315.038 129.62 315.91V316C129.607 317.155 129.14 318.258 128.321 319.072C127.501 319.886 126.395 320.345 125.24 320.35Z" fill="#FAFAFA"/>
<path d="M59.7804 382.94H55.4004V370.46H64.3804L59.7804 382.94Z" fill="#F0F0F0"/>
<path d="M267.28 81.52H224.32V124.48H267.28V81.52Z" fill="#EBEBEB"/>
<path d="M269.19 81.5298H267.29V124.49H269.19V81.5298Z" fill="#E0E0E0"/>
<path d="M261.47 87.3501H230.15V118.67H261.47V87.3501Z" fill="white"/>
<path d="M251.05 108.24C250.362 108.93 249.544 109.477 248.644 109.85C247.744 110.224 246.779 110.416 245.805 110.416C244.831 110.416 243.866 110.224 242.966 109.85C242.066 109.477 241.248 108.93 240.56 108.24C239.173 106.849 238.394 104.965 238.394 103C238.394 101.036 239.173 99.1512 240.56 97.7602C241.953 96.3722 243.839 95.5928 245.805 95.5928C247.771 95.5928 249.657 96.3722 251.05 97.7602C252.438 99.1512 253.217 101.036 253.217 103C253.217 104.965 252.438 106.849 251.05 108.24Z" fill="#F5F5F5"/>
<path d="M225.2 136.76H174.83V187.13H225.2V136.76Z" fill="#EBEBEB"/>
<path d="M227.43 136.77H225.2V187.14H227.43V136.77Z" fill="#E0E0E0"/>
<path d="M218.38 143.59H181.66V180.31H218.38V143.59Z" fill="white"/>
<path d="M207.84 154.11H192.18V169.77H207.84V154.11Z" fill="#F5F5F5"/>
<path d="M450.5 120.56H423.23V126.93H450.5V120.56Z" fill="#E6E6E6"/>
<path d="M423.23 120.56H310.35V126.93H423.23V120.56Z" fill="#F5F5F5"/>
<path d="M374.49 86.7402H342.71V120.57H374.49V86.7402Z" fill="#E0E0E0"/>
<path d="M342.71 86.7402H334.57V120.57H342.71V86.7402Z" fill="#F0F0F0"/>
<path d="M382.82 81.52H358.95V120.56H382.82V81.52Z" fill="#E6E6E6"/>
<path d="M358.96 81.52H352.06V120.56H358.96V81.52Z" fill="#F0F0F0"/>
<path d="M386.12 86.7402H365.99V120.57H386.12V86.7402Z" fill="#F0F0F0"/>
<path d="M365.99 86.7402H361.39V120.57H365.99V86.7402Z" fill="#FAFAFA"/>
<path d="M408.86 92.46H382.46V120.56H408.86V92.46Z" fill="#E6E6E6"/>
<path d="M382.46 92.46H375.7V120.56H382.46V92.46Z" fill="#FAFAFA"/>
<path d="M415.78 88.1299H395.95V120.57H415.78V88.1299Z" fill="#E6E6E6"/>
<path d="M395.95 88.1299H390.22V120.57H395.95V88.1299Z" fill="#F0F0F0"/>
<path d="M421.05 92.46H401.79V120.56H421.05V92.46Z" fill="#F0F0F0"/>
<path d="M401.79 92.46H397.97V120.56H401.79V92.46Z" fill="#FAFAFA"/>
<path d="M407.09 309.42C415.63 298.26 435.96 294.11 442.99 287.07C452.19 277.84 452.15 263.99 444.31 258.99C437.51 254.65 414.95 283.99 412.42 287.29C403.67 298.58 401.14 306.95 399.5 315.06C399.69 308.17 399.87 301.83 400.02 296.95C400.49 281.02 401.08 275.89 401.36 274.32C402.36 273.54 403.42 272.65 404.06 272.17C409.52 268.1 421.62 263.25 427.67 257.34C436.51 248.7 435.08 238.34 428.88 234.51C422.41 230.51 410.95 240 404.88 249.43C398.81 258.86 401.4 267.9 399.7 275.67C399.34 277.21 398.97 283.04 398.63 291.13C397.19 283.158 392.781 276.028 386.29 271.18C377.92 264.5 370.69 256.36 363.79 257.41C356.89 258.46 360.64 269.23 366.06 276.79C370.92 283.52 394.91 290.24 398.44 295.65C398.02 306.65 397.65 320.5 397.39 333.44C395.5 326.76 396.8 326.2 389.05 315.94C384.45 309.86 365.55 302.34 363.31 306.54C361.07 310.74 364.48 318.62 371.61 324.15C377.36 328.61 390.07 328.6 393.08 331.37C393.77 332.01 396.08 334.49 397.34 335.92C397.03 351.7 396.9 365.63 397.05 370.39L398.29 370.44C398.23 369.21 398.37 361.18 398.62 350.55C401.72 344.9 422.62 341.55 429.03 335.71C435.77 329.56 440.61 322.38 437.72 317.57C435.31 313.57 416.34 319.01 408.57 325.65C403.43 330.07 400.29 334.8 398.85 341.14C399.02 333.9 399.23 326.14 399.42 318.79C401 317 404.53 312.77 407.09 309.42Z" fill="#E6E6E6"/>
<path d="M408.91 382.73H387.25C386.06 382.73 385.04 381.19 384.81 379.05L383.27 365.05H412.88L411.35 379.05C411.1 381.19 410.09 382.73 408.91 382.73Z" fill="#F0F0F0"/>
<path d="M413.5 370.46H382.65C381.91 370.46 381.29 369.46 381.21 368.08L380.58 357.72C380.48 356.13 381.15 354.72 382.02 354.72H414.14C415 354.72 415.67 356.11 415.57 357.72L414.94 368.08C414.87 369.44 414.24 370.46 413.5 370.46Z" fill="#F0F0F0"/>
<path d="M250 427.56C357.083 427.56 443.89 422.492 443.89 416.24C443.89 409.988 357.083 404.92 250 404.92C142.918 404.92 56.1104 409.988 56.1104 416.24C56.1104 422.492 142.918 427.56 250 427.56Z" fill="#F5F5F5"/>
<path d="M214.49 155.68C212.28 161.05 199.27 160.68 185.64 155.06C172.01 149.44 162.74 140.53 164.95 135.16C165.47 133.92 166.95 129.27 168.43 128.63C173.51 126.48 183.18 131.31 193.65 135.63C203.4 139.63 214.55 142.24 216.28 147.53C217.32 150.75 215.12 154.15 214.49 155.68Z" fill="#39A6B6"/>
<path opacity="0.2" d="M216.28 147.53C217.11 151.74 215.28 153.76 214.49 155.68C213.7 157.6 211.39 158.86 208.16 159.3C207.756 159.368 207.349 159.415 206.94 159.44C204.463 159.585 201.978 159.455 199.53 159.05C199.18 159.05 198.83 158.94 198.47 158.88C195.596 158.364 192.765 157.635 190 156.7L189 156.36C187.89 155.97 186.75 155.54 185.61 155.07C184.47 154.6 183.39 154.07 182.32 153.6L181.4 153.16C178.879 151.913 176.45 150.49 174.13 148.9L173.31 148.32C171.285 146.889 169.43 145.231 167.78 143.38C167.53 143.1 167.3 142.83 167.08 142.55C164.93 139.83 164.08 137.23 164.93 135.16C165.49 133.83 166.69 129.28 168.41 128.62C170.525 128.024 172.764 128.024 174.88 128.62L175.88 128.86C180.88 130.14 187.18 132.99 193.61 135.64C201.19 138.77 210.16 142.02 214.56 145.77C214.822 145.99 215.072 146.224 215.31 146.47C215.661 146.797 215.985 147.151 216.28 147.53Z" fill="black"/>
<g opacity="0.2">
<path opacity="0.2" d="M176.38 128L175.92 128.84L167.8 143.37C167.55 143.09 167.32 142.82 167.1 142.54L174.9 128.6L175.51 127.52L176.38 128Z" fill="black"/>
</g>
<g opacity="0.2">
<path opacity="0.2" d="M182.52 133.93L174.15 148.93L173.33 148.35L181.65 133.47L182.52 133.93Z" fill="black"/>
</g>
<g opacity="0.2">
<path opacity="0.2" d="M197.91 142.53L190 156.7L189 156.36L197 142L197.91 142.53Z" fill="black"/>
</g>
<g opacity="0.2">
<path opacity="0.2" d="M190.75 138.53L182.34 153.6L181.42 153.16L189.88 138L190.75 138.53Z" fill="black"/>
</g>
<g opacity="0.2">
<path opacity="0.2" d="M207.24 145.27L199.53 159.05C199.18 159.05 198.83 158.94 198.47 158.88L206.36 144.77L207.24 145.27Z" fill="black"/>
</g>
<path d="M216.219 151C214.009 156.37 201.159 156.16 187.519 150.53C173.879 144.9 164.619 136 166.839 130.63C169.059 125.26 181.899 125.48 195.539 131.1C209.179 136.72 218.429 145.6 216.219 151Z" fill="#39A6B6"/>
<path opacity="0.2" d="M211.58 149.05C210.02 152.84 200 152.31 189.21 147.86C178.42 143.41 170.94 136.72 172.5 132.93C174.06 129.14 184.08 129.67 194.88 134.12C205.68 138.57 213.15 145.26 211.58 149.05Z" fill="white"/>
<path d="M283.41 107.14C286.97 111.73 280.19 122.84 268.52 131.87C256.85 140.9 244.52 144.5 240.97 139.87C240.15 138.81 236.83 135.26 237.03 133.6C237.7 128.13 246.69 122.15 255.65 115.21C263.99 108.75 271.78 100.37 277.23 101.5C280.54 102.23 282.4 105.84 283.41 107.14Z" fill="#39A6B6"/>
<path opacity="0.2" d="M277.23 101.54C281.3 102.92 282.14 105.54 283.41 107.14C284.68 108.74 284.63 111.41 283.41 114.44C283.27 114.81 283.1 115.18 282.92 115.56C281.824 117.783 280.482 119.876 278.92 121.8C278.71 122.08 278.48 122.35 278.25 122.63C276.369 124.873 274.323 126.972 272.13 128.91L271.36 129.58C270.47 130.35 269.53 131.12 268.56 131.87C267.59 132.62 266.62 133.33 265.64 134C265.37 134.2 265.08 134.39 264.81 134.58C262.473 136.147 260.027 137.544 257.49 138.76C257.18 138.92 256.88 139.05 256.59 139.19C254.335 140.233 251.97 141.018 249.54 141.53C249.18 141.61 248.83 141.67 248.48 141.72C245.05 142.23 242.37 141.72 241 139.91C240.12 138.77 236.77 135.46 237.06 133.65C237.583 131.51 238.695 129.56 240.27 128.02C240.49 127.77 240.73 127.52 240.98 127.26C244.59 123.52 250.18 119.51 255.68 115.26C262.17 110.26 269.45 104.07 274.88 102.13C275.208 102.01 275.541 101.906 275.88 101.82C276.322 101.694 276.774 101.6 277.23 101.54Z" fill="black"/>
<g opacity="0.2">
<path opacity="0.2" d="M240.45 126.44L240.95 127.26L249.51 141.53C249.15 141.61 248.8 141.67 248.45 141.72L240.24 128L239.6 127L240.45 126.44Z" fill="black"/>
</g>
<g opacity="0.2">
<path opacity="0.2" d="M248.639 124.06L257.459 138.76C257.149 138.92 256.849 139.05 256.559 139.19L247.779 124.57L248.639 124.06Z" fill="black"/>
</g>
<g opacity="0.2">
<path opacity="0.2" d="M263.75 115L272.1 128.92L271.33 129.59L262.89 115.51L263.75 115Z" fill="black"/>
</g>
<g opacity="0.2">
<path opacity="0.2" d="M256.729 119.21L265.609 134C265.339 134.2 265.049 134.39 264.779 134.58L255.859 119.72L256.729 119.21Z" fill="black"/>
</g>
<g opacity="0.2">
<path opacity="0.2" d="M270.77 108.25L278.89 121.8C278.68 122.08 278.45 122.35 278.22 122.63L269.91 108.77L270.77 108.25Z" fill="black"/>
</g>
<path d="M265.492 127.946C277.154 118.912 283.727 107.87 280.173 103.281C276.618 98.6917 264.283 102.294 252.62 111.328C240.958 120.361 234.385 131.404 237.94 135.993C241.494 140.582 253.83 136.979 265.492 127.946Z" fill="#39A6B6"/>
<path opacity="0.2" d="M264.046 125.162C273.276 118.013 278.722 109.587 276.209 106.343C273.696 103.099 264.177 106.265 254.946 113.414C245.716 120.564 240.27 128.989 242.783 132.233C245.296 135.478 254.816 132.312 264.046 125.162Z" fill="white"/>
<path d="M235.139 85.64C233.999 92.22 219.239 95 202.519 92C185.799 89 173.189 81.27 174.359 74.69C174.629 73.16 175.099 67.59 176.669 66.48C181.859 62.82 193.919 65.88 206.759 68.16C218.759 70.29 231.889 70.46 235.139 75.99C237.109 79.39 235.469 83.76 235.139 85.64Z" fill="#39A6B6"/>
<path opacity="0.2" d="M235.14 75.9999C237.14 80.5399 235.55 83.2499 235.14 85.6099C234.73 87.9699 232.44 89.9399 228.92 91.2399C228.49 91.4099 228.04 91.5499 227.58 91.6899C224.826 92.4638 221.996 92.9299 219.14 93.0799C218.73 93.0799 218.33 93.0799 217.91 93.1499C214.545 93.2736 211.176 93.15 207.83 92.7799L206.66 92.6299C205.31 92.4599 203.92 92.2599 202.53 92.0099C201.14 91.7599 199.79 91.4799 198.46 91.1699C198.08 91.0899 197.7 90.9899 197.32 90.8999C194.178 90.1241 191.096 89.1215 188.1 87.8999C187.73 87.7599 187.38 87.5999 187.03 87.4599C184.399 86.3403 181.904 84.9281 179.59 83.2499C179.24 82.9999 178.92 82.7499 178.59 82.4899C175.49 79.9599 173.9 77.2399 174.35 74.7099C174.65 73.0699 174.89 67.7099 176.65 66.4999C178.41 65.2899 180.93 64.9099 183.93 64.8999H185.13C191.13 65.0999 198.86 66.7699 206.75 68.1699C216.05 69.8299 226.94 71.2799 232.8 74.4199C233.143 74.6021 233.477 74.8024 233.8 75.0199C234.271 75.3112 234.719 75.6388 235.14 75.9999Z" fill="black"/>
<g opacity="0.2">
<path opacity="0.2" d="M185.46 63.8798L185.14 64.9298L179.58 83.2698C179.23 83.0198 178.91 82.7698 178.58 82.5098L183.92 64.9198L184.34 63.5498L185.46 63.8798Z" fill="black"/>
</g>
<g opacity="0.2">
<path opacity="0.2" d="M193.82 68.9999L188.09 87.8899C187.72 87.7499 187.37 87.5899 187.02 87.4499L192.72 68.6499L193.82 68.9999Z" fill="black"/>
</g>
<g opacity="0.2">
<path opacity="0.2" d="M213.249 74.9201L207.819 92.8101L206.649 92.6601L212.139 74.5801L213.249 74.9201Z" fill="black"/>
</g>
<g opacity="0.2">
<path opacity="0.2" d="M204.22 72.1798L198.45 91.1798C198.07 91.0998 197.69 90.9998 197.31 90.9098L203.11 71.8198L204.22 72.1798Z" fill="black"/>
</g>
<g opacity="0.2">
<path opacity="0.2" d="M224.419 75.7001L219.129 93.1101C218.719 93.1101 218.319 93.1101 217.899 93.1801L223.309 75.3701L224.419 75.7001Z" fill="black"/>
</g>
<path d="M235.919 79.8949C237.09 73.3156 224.48 65.5693 207.754 62.593C191.029 59.6168 176.521 62.5376 175.35 69.1169C174.18 75.6962 186.789 83.4425 203.515 86.4188C220.24 89.395 234.748 86.4742 235.919 79.8949Z" fill="#39A6B6"/>
<path opacity="0.2" d="M230.227 78.889C231.054 74.24 220.996 68.5621 207.761 66.207C194.526 63.852 183.127 65.7116 182.3 70.3606C181.472 75.0096 191.531 80.6875 204.765 83.0426C218 85.3976 229.4 83.538 230.227 78.889Z" fill="white"/>
<path d="M322.44 253.63L219.53 259.63C215.895 259.844 212.328 260.712 209 262.19L97.2201 312.19C95.2588 313.053 93.6527 314.562 92.6699 316.465C91.6871 318.369 91.3871 320.552 91.8201 322.65L110.29 410C110.602 411.407 111.232 412.724 112.131 413.849C113.03 414.975 114.175 415.881 115.478 416.496C116.78 417.112 118.207 417.422 119.647 417.402C121.088 417.381 122.505 417.032 123.79 416.38L234.12 361.3L336 357.89C337.254 357.857 338.486 357.557 339.615 357.01C340.743 356.463 341.742 355.682 342.546 354.719C343.349 353.756 343.938 352.633 344.273 351.424C344.608 350.216 344.682 348.95 344.49 347.71L330.86 264.07C330.15 259.75 326.87 253.5 322.44 253.63Z" fill="#39A6B6"/>
<path opacity="0.1" d="M322.44 253.63L219.53 259.63C215.895 259.844 212.328 260.712 209 262.19L97.2201 312.19C95.2588 313.053 93.6527 314.562 92.6699 316.465C91.6871 318.369 91.3871 320.552 91.8201 322.65L110.29 410C110.602 411.407 111.232 412.724 112.131 413.849C113.03 414.975 114.175 415.881 115.478 416.496C116.78 417.112 118.207 417.422 119.647 417.402C121.088 417.381 122.505 417.032 123.79 416.38L234.12 361.3L336 357.89C337.254 357.857 338.486 357.557 339.615 357.01C340.743 356.463 341.742 355.682 342.546 354.719C343.349 353.756 343.938 352.633 344.273 351.424C344.608 350.216 344.682 348.95 344.49 347.71L330.86 264.07C330.15 259.75 326.87 253.5 322.44 253.63Z" fill="black"/>
<path d="M115.879 196.755L61.873 246.538L158.788 351.674L212.794 301.891L115.879 196.755Z" fill="#39A6B6"/>
<path opacity="0.5" d="M212.78 301.9L158.77 351.68L61.8701 246.55L97.3101 213.88L115.88 196.76L118.97 200.12L212.78 301.9Z" fill="#FAFAFA"/>
<path d="M116.226 203.182L68.5732 247.109L159.226 345.451L206.878 301.525L116.226 203.182Z" stroke="#39A6B6" stroke-miterlimit="10"/>
<path d="M148.448 285.96C153.914 280.921 153.223 271.28 146.904 264.425C140.586 257.571 131.032 256.099 125.567 261.137C120.101 266.175 120.792 275.816 127.111 282.671C133.429 289.526 142.983 290.998 148.448 285.96Z" fill="#39A6B6"/>
<path opacity="0.1" d="M158.201 309.01L139.011 315.64L97.3105 213.88L115.881 196.76L118.971 200.12L158.201 309.01Z" fill="black"/>
<path d="M161.939 155.566L92.8877 180.603L141.629 315.029L210.68 289.992L161.939 155.566Z" fill="#39A6B6"/>
<path opacity="0.5" d="M161.939 155.566L92.8877 180.603L141.629 315.029L210.68 289.992L161.939 155.566Z" fill="#FAFAFA"/>
<path d="M159.768 161.627L98.8398 183.719L144.431 309.459L205.36 287.367L159.768 161.627Z" stroke="#39A6B6" stroke-miterlimit="10"/>
<path d="M157.502 250.418C164.49 247.884 167.579 238.725 164.402 229.96C161.224 221.196 152.982 216.145 145.994 218.679C139.005 221.213 135.916 230.372 139.094 239.137C142.272 247.901 150.513 252.952 157.502 250.418Z" fill="#39A6B6"/>
<path d="M323.11 257.18L221.61 262.9C218.012 263.098 214.482 263.962 211.2 265.45L101.06 315.17C99.1198 316.047 97.5371 317.56 96.5734 319.458C95.6097 321.356 95.3226 323.527 95.7598 325.61L114.23 413C114.527 414.398 115.141 415.709 116.025 416.833C116.908 417.957 118.037 418.863 119.325 419.482C120.614 420.101 122.027 420.416 123.456 420.404C124.885 420.391 126.292 420.052 127.57 419.41L236.27 364.64L336.75 361.46C337.994 361.421 339.215 361.117 340.332 360.568C341.449 360.019 342.436 359.238 343.227 358.278C344.018 357.317 344.596 356.199 344.92 354.997C345.245 353.796 345.31 352.539 345.11 351.31L331.44 267.68C330.73 263.32 327.49 257.06 323.11 257.18Z" fill="#39A6B6"/>
<path opacity="0.2" d="M225.74 278.2L312.83 272.84" stroke="black" stroke-width="2" stroke-linecap="round" stroke-linejoin="round"/>
<path opacity="0.2" d="M215.311 280.45L231.221 353.53" stroke="black" stroke-width="2" stroke-linecap="round" stroke-linejoin="round"/>
<path opacity="0.2" d="M109.23 346.43L120.45 402.64C120.45 402.64 129.05 380.34 109.23 346.43Z" fill="#FAFAFA"/>
<path opacity="0.2" d="M110.7 347.09C111.09 348.09 210.36 305.49 210.36 305.49C210.629 315.148 208.214 324.692 203.384 333.06C198.554 341.428 191.498 348.292 183 352.89C153.12 369.64 110.7 347.09 110.7 347.09Z" fill="#FAFAFA"/>
<path d="M176.64 348.75C179.015 348.75 180.94 346.825 180.94 344.45C180.94 342.076 179.015 340.15 176.64 340.15C174.265 340.15 172.34 342.076 172.34 344.45C172.34 346.825 174.265 348.75 176.64 348.75Z" fill="#39A6B6"/>
<path opacity="0.2" d="M210.41 305.49C210.41 305.49 222.72 324.02 219.74 355.58L210.41 305.49Z" fill="black"/>
<g opacity="0.2">
<path opacity="0.2" d="M104.48 324.35L106.77 323.34" stroke="#FAFAFA" stroke-linecap="round" stroke-linejoin="round"/>
<path opacity="0.2" d="M111.521 321.24L204.221 280.26" stroke="#FAFAFA" stroke-linecap="round" stroke-linejoin="round" stroke-dasharray="5.2 5.2"/>
<path opacity="0.2" d="M206.601 279.21L208.881 278.2" stroke="#FAFAFA" stroke-linecap="round" stroke-linejoin="round"/>
</g>
<path opacity="0.2" d="M228.66 294.63L315.75 289.26" stroke="black" stroke-width="2" stroke-linecap="round" stroke-linejoin="round"/>
<path opacity="0.2" d="M232.58 315.12L319.67 309.75" stroke="black" stroke-width="2" stroke-linecap="round" stroke-linejoin="round"/>
<path d="M300.58 169.56C300.58 169.56 298.39 192.89 289.72 194.9C284.351 196.059 278.754 195.499 273.72 193.3L266.67 187.88L263.23 199.88C263.23 199.88 266.99 204.99 274.84 201.45C274.84 201.45 288.84 207.61 296.58 201.45C304.32 195.29 306.8 178.39 306.8 178.39L300.58 169.56Z" fill="#B97964"/>
<path d="M307.551 158.26C307.551 158.26 301.501 147.95 304.251 129.26C307.001 110.57 322.671 108.26 328.721 109.61C334.771 110.96 339.721 116.77 343.841 127.83C347.961 138.89 349.481 141.77 356.351 139.83C363.221 137.89 381.501 131.83 386.591 137.22C388.055 138.692 389.134 140.502 389.732 142.491C390.33 144.479 390.429 146.584 390.021 148.62C390.021 148.62 415.451 142.44 413.251 165.12C411.051 187.8 374.351 208.97 339.441 186.56C304.531 164.15 307.551 158.26 307.551 158.26Z" fill="#263238"/>
<path d="M307.271 213.15C307.271 213.15 300.361 272.58 300.591 300.45C300.821 328.32 310.721 394 310.721 394H322.931C322.931 394 321.321 341.48 321.551 323.51C321.781 305.54 325.001 275.81 325.001 275.81C325.001 275.81 328.911 302.53 333.521 311.97C338.131 321.41 363.701 354.82 381.441 365.19L389.731 357.58C389.731 357.58 371.301 334.78 364.391 323.49C357.481 312.2 351.271 309 348.731 288C346.191 267 350.581 233.41 343.211 213.14L307.271 213.15Z" fill="#263238"/>
<path opacity="0.2" d="M325.001 275.81L319.691 238.14C319.691 238.14 315.501 260.78 323.751 288.43L325.001 275.81Z" fill="black"/>
<path d="M313.23 397.33L313.64 409L321.83 409.68L322.24 408.59V396.51L313.23 397.33Z" fill="#B97964"/>
<path d="M309.341 392.89L310.091 397.26L324.151 397.6L325.041 392.35L309.341 392.89Z" fill="#39A6B6"/>
<path d="M377.591 366L390.621 353.86L393.491 358.43L382.301 368.67L377.591 366Z" fill="#39A6B6"/>
<path d="M383.87 366L392.47 373.24L397.99 366.75L390.93 359.45L383.87 366Z" fill="#B97964"/>
<path d="M399.661 366.25L404.861 369.45C405.098 369.596 405.3 369.792 405.453 370.024C405.606 370.256 405.707 370.519 405.748 370.795C405.789 371.07 405.769 371.351 405.69 371.618C405.611 371.885 405.475 372.131 405.291 372.34C401.521 376.6 391.891 387.42 390.931 388.18C389.741 389.18 388.301 387.5 387.931 386C387.931 386 390.661 382.38 390.931 380.06C391.044 378.268 391.044 376.471 390.931 374.68C390.91 374.231 391.06 373.792 391.351 373.45L397.161 366.63C397.461 366.274 397.879 366.04 398.339 365.97C398.799 365.9 399.269 366 399.661 366.25Z" fill="#263238"/>
<path d="M323.83 409.999L324.91 415.999C324.96 416.274 324.949 416.556 324.878 416.825C324.807 417.095 324.678 417.346 324.5 417.56C324.321 417.775 324.098 417.948 323.846 418.067C323.594 418.186 323.319 418.248 323.04 418.249C317.35 418.249 302.87 418.309 301.66 418.109C300.15 417.859 300.42 415.699 301.31 414.439C301.31 414.439 305.82 414.059 307.71 412.689C309.116 411.587 310.452 410.398 311.71 409.129C312.032 408.815 312.46 408.633 312.91 408.619L321.86 408.409C322.325 408.393 322.78 408.544 323.142 408.836C323.504 409.128 323.749 409.542 323.83 409.999Z" fill="#263238"/>
<path d="M344.521 180.19L357.001 171.43C357.001 171.43 353.681 158.15 348.761 157.49C343.841 156.83 319.421 152.18 303.891 157.49C303.891 157.49 298.311 159.08 296.591 174.75L303.231 176.87C303.231 176.87 305.611 206.21 307.081 210.73H342.521C342.521 210.73 342.921 185.5 344.521 180.19Z" fill="#39A6B6"/>
<path d="M347.21 178.3C347.21 178.3 351.94 191.8 352.78 199.06C352.78 199.06 341.54 194.58 338.64 192.53L336.44 184.63L329 181L326.79 187L333 194.7C333 194.7 349.93 210.54 358.51 206.92C367.09 203.3 355.12 172.78 355.12 172.78L347.21 178.3Z" fill="#B97964"/>
<path d="M315.46 119.19C315.46 119.19 311.13 127.83 311.46 134.86C311.79 141.89 315.34 144.76 322.09 145.75C322.09 145.75 324.97 154.75 317.41 155.66C316.83 155.73 316.63 158.02 316.67 158.39C316.87 159.85 318.32 160.65 319.67 160.99C321.092 161.305 322.544 161.466 324 161.47C325.53 161.522 327.051 161.227 328.449 160.605C329.847 159.983 331.085 159.051 332.07 157.88C332.23 157.69 333.75 155.75 333.75 155.75C333.75 155.75 330.14 153.96 331.41 142.24C333.133 141.118 334.456 139.48 335.19 137.56C335.88 137.194 336.49 136.694 336.984 136.089C337.479 135.485 337.848 134.788 338.07 134.04C338.61 131.7 336.54 128.46 332.76 131.7C332.76 131.7 325.64 128.1 322.94 115.49C320.938 117.535 318.301 118.84 315.46 119.19Z" fill="#B97964"/>
<path d="M317.49 132.94L318.1 128.32L314.83 131.94C315.167 132.299 315.583 132.576 316.044 132.749C316.505 132.922 317 132.988 317.49 132.94Z" fill="#A24E3F"/>
<path d="M319.391 136.32C319.391 136.32 322.841 136.85 324.501 134.64" stroke="#222221" stroke-width="0.75" stroke-linecap="round" stroke-linejoin="round"/>
<path d="M322.841 121.85C323.624 121.627 324.453 121.62 325.24 121.829C326.026 122.039 326.742 122.457 327.311 123.04" stroke="#222221" stroke-linecap="round" stroke-linejoin="round"/>
<path d="M316.87 120.849C316.87 120.849 314.87 120.539 313.98 121.669" stroke="#222221" stroke-linecap="round" stroke-linejoin="round"/>
<path d="M324.231 127.929C324.141 128.629 323.691 129.139 323.231 129.079C322.771 129.019 322.461 128.409 322.551 127.709C322.641 127.009 323.091 126.499 323.551 126.559C324.011 126.619 324.321 127.229 324.231 127.929Z" fill="#222221"/>
<path d="M316.248 126.382C316.338 125.686 316.034 125.073 315.568 125.013C315.103 124.953 314.652 125.467 314.562 126.163C314.472 126.859 314.776 127.471 315.241 127.532C315.707 127.592 316.158 127.077 316.248 126.382Z" fill="#222221"/>
<path d="M323.56 126.56L321.98 125.87C322.001 126.043 322.067 126.207 322.171 126.347C322.275 126.487 322.413 126.597 322.573 126.667C322.733 126.736 322.908 126.763 323.081 126.744C323.254 126.726 323.419 126.662 323.56 126.56Z" fill="#222221"/>
<path d="M315.721 125.08L314.141 124.39C314.161 124.563 314.227 124.727 314.331 124.867C314.435 125.007 314.574 125.117 314.733 125.187C314.893 125.256 315.068 125.283 315.241 125.264C315.414 125.246 315.58 125.182 315.721 125.08Z" fill="#222221"/>
<path d="M305.841 209.17V213.34L344.241 213.66L343.211 208.7L305.841 209.17Z" fill="#39A6B6"/>
<path opacity="0.4" d="M305.841 209.17V213.34L344.241 213.66L343.211 208.7L305.841 209.17Z" fill="white"/>
<path d="M306.31 188.93L285.19 262.39C284.488 264.85 283.064 267.043 281.104 268.687C279.143 270.33 276.735 271.348 274.19 271.61C272.57 271.765 270.935 271.616 269.37 271.17L229 259.56C225.736 258.618 222.979 256.421 221.333 253.45C219.688 250.479 219.287 246.976 220.22 243.71L241.35 170.23C242.293 166.971 244.491 164.219 247.46 162.577C250.429 160.935 253.928 160.537 257.19 161.47L297.59 173.07C300.846 174.022 303.592 176.226 305.226 179.198C306.861 182.171 307.25 185.671 306.31 188.93Z" fill="#39A6B6"/>
<path opacity="0.2" d="M306.31 188.93L285.19 262.39C284.488 264.85 283.064 267.043 281.104 268.687C279.143 270.33 276.735 271.348 274.19 271.61C272.57 271.765 270.935 271.616 269.37 271.17L229 259.56C225.736 258.618 222.979 256.421 221.333 253.45C219.688 250.479 219.287 246.976 220.22 243.71L241.35 170.23C242.293 166.971 244.491 164.219 247.46 162.577C250.429 160.935 253.928 160.537 257.19 161.47L297.59 173.07C300.846 174.022 303.592 176.226 305.226 179.198C306.861 182.171 307.25 185.671 306.31 188.93Z" fill="black"/>
<path d="M302.8 189.8L281.68 263.27C281.146 265.14 280.192 266.864 278.89 268.309C277.588 269.754 275.974 270.883 274.17 271.61C272.55 271.765 270.915 271.615 269.35 271.17L229 259.56C225.736 258.618 222.979 256.421 221.333 253.45C219.688 250.478 219.287 246.976 220.22 243.71L241.35 170.23C241.884 168.362 242.839 166.642 244.141 165.2C245.442 163.758 247.056 162.632 248.86 161.91C250.48 161.745 252.116 161.894 253.68 162.35L294 174C297.257 174.935 300.012 177.123 301.661 180.084C303.31 183.044 303.719 186.538 302.8 189.8Z" fill="#39A6B6"/>
<path opacity="0.5" d="M302.8 189.8L281.68 263.27C281.146 265.14 280.192 266.864 278.89 268.309C277.588 269.754 275.974 270.883 274.17 271.61C272.55 271.765 270.915 271.615 269.35 271.17L229 259.56C225.736 258.618 222.979 256.421 221.333 253.45C219.688 250.478 219.287 246.976 220.22 243.71L241.35 170.23C241.884 168.362 242.839 166.642 244.141 165.2C245.442 163.758 247.056 162.632 248.86 161.91C250.48 161.745 252.116 161.894 253.68 162.35L294 174C297.257 174.935 300.012 177.123 301.661 180.084C303.31 183.044 303.719 186.538 302.8 189.8Z" fill="#FAFAFA"/>
<path d="M246.021 196.048L241.699 194.83L226.144 250.019L230.466 251.237L246.021 196.048Z" fill="#FAFAFA"/>
<path d="M236.67 252.99L232.35 251.74L247.9 196.57L252.21 197.81L236.67 252.99Z" fill="#FAFAFA"/>
<path d="M242.95 254.79L238.63 253.55L254.18 198.38L258.5 199.62L242.95 254.79Z" fill="#FAFAFA"/>
<path opacity="0.5" d="M283.648 206.85L279.326 205.632L263.771 260.822L268.093 262.04L283.648 206.85Z" fill="black"/>
<path d="M283.099 191.25L280.999 198.74L278.439 198.02C277.199 197.668 276.149 196.839 275.519 195.714C274.89 194.59 274.731 193.261 275.079 192.02L276.479 187.02L281.649 188.5C282.206 188.673 282.671 189.059 282.943 189.575C283.215 190.091 283.271 190.693 283.099 191.25Z" fill="#FAFAFA"/>
<path d="M281.87 187.58L276.7 186.1L278.25 180.62C278.423 180.005 278.716 179.43 279.111 178.929C279.506 178.427 279.997 178.008 280.554 177.696C281.111 177.384 281.724 177.185 282.359 177.11C282.993 177.035 283.636 177.086 284.25 177.26L286.91 178.01L284.59 186.08C284.513 186.359 284.381 186.62 284.202 186.847C284.023 187.074 283.8 187.263 283.546 187.403C283.293 187.543 283.014 187.63 282.726 187.661C282.438 187.691 282.147 187.664 281.87 187.58Z" fill="#FAFAFA"/>
<path d="M286.77 190L291.97 191.49L290.59 196.38C290.419 196.996 290.128 197.572 289.733 198.075C289.338 198.578 288.848 198.998 288.29 199.311C287.732 199.623 287.118 199.822 286.483 199.896C285.848 199.969 285.204 199.916 284.59 199.74L281.89 198.98L284.04 191.5C284.119 191.221 284.253 190.961 284.433 190.734C284.614 190.508 284.838 190.319 285.091 190.18C285.345 190.04 285.624 189.953 285.913 189.922C286.201 189.891 286.492 189.917 286.77 190Z" fill="#FAFAFA"/>
<path d="M293.81 185L292.24 190.56L287.04 189.07C286.483 188.907 286.013 188.531 285.732 188.024C285.451 187.516 285.382 186.918 285.54 186.36L287.86 178.29L290.45 179.02C291.063 179.192 291.637 179.483 292.137 179.877C292.638 180.27 293.057 180.759 293.369 181.314C293.681 181.869 293.88 182.481 293.956 183.113C294.032 183.746 293.982 184.387 293.81 185Z" fill="#FAFAFA"/>
</svg>
