<svg width="15" height="25" viewBox="0 0 15 25" fill="none" xmlns="http://www.w3.org/2000/svg">
<path d="M11.5298 17.3907H8.89006V14.505C12.1913 13.7907 14.6739 10.8484 14.6739 7.33602C14.6739 3.29068 11.3826 0 7.33727 0C3.29193 0 0 3.2913 0 7.33665C0 10.8491 2.48199 13.7907 5.78385 14.5056V17.3913H3.1441C2.28633 17.3913 1.5913 18.0863 1.5913 18.9441C1.5913 19.8019 2.28633 20.4969 3.1441 20.4969H5.78385V23.4472C5.78385 24.305 6.47888 25 7.33665 25C8.19441 25 8.88944 24.305 8.88944 23.4472V20.4969H11.5292C12.387 20.4969 13.082 19.8019 13.082 18.9441C13.082 18.0863 12.3876 17.3907 11.5298 17.3907ZM3.10559 7.33665C3.10559 5.00373 5.00497 3.10559 7.33727 3.10559C9.66957 3.10559 11.5689 5.00435 11.5689 7.33665C11.5689 9.67081 9.66957 11.5683 7.33727 11.5683C5.00497 11.5683 3.10559 9.66894 3.10559 7.33665Z" fill="#DBADF9"/>
</svg>
